<?xml version="1.0" encoding="UTF-8"?>
<svg xmlns="http://www.w3.org/2000/svg" xmlns:xlink="http://www.w3.org/1999/xlink" width="810pt" height="809.999993pt" viewBox="0 0 810 809.999993" version="1.2">
<defs>
<clipPath id="clip1">
  <path d="M 140 115 L 669 115 L 669 744.578125 L 140 744.578125 Z M 140 115 "/>
</clipPath>
<clipPath id="clip2">
  <path d="M 404 321 L 417 321 L 417 744.578125 L 404 744.578125 Z M 404 321 "/>
</clipPath>
<clipPath id="clip3">
  <path d="M 393 321 L 406 321 L 406 744.578125 L 393 744.578125 Z M 393 321 "/>
</clipPath>
</defs>
<g id="surface1">
<g clip-path="url(#clip1)" clip-rule="nonzero">
<path style=" stroke:none;fill-rule:nonzero;fill:rgb(16.468811%,7.839966%,7.449341%);fill-opacity:1;" d="M 479.195312 296.894531 C 459.589844 310.761719 434.152344 321.757812 404.320312 321.757812 C 374.480469 321.757812 349.039062 310.761719 329.433594 296.894531 C 309.828125 283.023438 303.613281 276.804688 308.871094 257.675781 C 314.132812 238.546875 345.214844 223.71875 362.429688 228.984375 C 379.640625 234.242188 404.320312 227.070312 404.320312 227.070312 C 404.320312 227.070312 428.992188 234.242188 446.203125 228.984375 C 463.417969 223.71875 494.503906 238.546875 499.761719 257.675781 C 505.019531 276.804688 498.800781 283.023438 479.195312 296.894531 Z M 654.929688 127.878906 C 646.324219 147.96875 642.734375 236.199219 609.019531 252.699219 C 575.308594 269.199219 555.660156 279.242188 536.4375 241.9375 C 517.210938 204.636719 467.867188 168.773438 404.320312 196.023438 C 340.761719 168.773438 291.421875 204.636719 272.191406 241.9375 C 252.972656 279.242188 233.320312 269.199219 199.613281 252.699219 C 165.894531 236.199219 162.3125 147.96875 153.703125 127.878906 C 145.09375 107.792969 140.078125 118.554688 140.078125 118.554688 C 140.078125 118.554688 140.832031 174.304688 151.074219 234.492188 C 151.105469 235.042969 160.074219 391.5625 207.765625 509.414062 L 207.765625 497.226562 C 207.765625 497.226562 229.316406 603.109375 293.960938 660.265625 L 293.960938 647.148438 C 293.960938 647.148438 314.191406 696.804688 404.320312 744.59375 C 494.445312 696.804688 514.679688 647.148438 514.679688 647.148438 L 514.679688 660.265625 C 579.320312 603.109375 600.863281 497.226562 600.863281 497.226562 L 600.863281 509.414062 C 648.542969 391.601562 657.523438 235.144531 657.5625 234.492188 C 667.796875 174.304688 668.558594 118.554688 668.558594 118.554688 C 668.558594 118.554688 663.539062 107.792969 654.929688 127.878906 "/>
</g>
<path style=" stroke:none;fill-rule:nonzero;fill:rgb(16.468811%,7.839966%,7.449341%);fill-opacity:1;" d="M 576.859375 266.238281 C 576.859375 266.238281 616.515625 446.378906 514.679688 647.148438 C 514.679688 647.148438 628.722656 460.027344 576.859375 266.238281 "/>
<path style=" stroke:none;fill-rule:nonzero;fill:rgb(16.468811%,7.839966%,7.449341%);fill-opacity:1;" d="M 593.859375 259.953125 C 593.859375 259.953125 641.078125 456.234375 514.679688 660.265625 C 514.679688 660.265625 658.625 453.195312 593.859375 259.953125 "/>
<path style=" stroke:none;fill-rule:nonzero;fill:rgb(16.468811%,7.839966%,7.449341%);fill-opacity:1;" d="M 600.863281 497.226562 C 600.863281 497.226562 639.007812 354.335938 609.019531 252.699219 C 609.019531 252.699219 655.714844 334.605469 600.863281 497.226562 "/>
<path style=" stroke:none;fill-rule:nonzero;fill:rgb(16.468811%,7.839966%,7.449341%);fill-opacity:1;" d="M 624.03125 238.363281 C 624.03125 238.363281 652.34375 284.746094 632.199219 406.789062 C 632.199219 406.789062 661.113281 284.992188 624.03125 238.363281 "/>
<path style=" stroke:none;fill-rule:nonzero;fill:rgb(16.468811%,7.839966%,7.449341%);fill-opacity:1;" d="M 632.207031 222.175781 C 632.207031 222.175781 654.652344 245.144531 649.867188 308.652344 C 649.867188 308.652344 661.363281 238.972656 632.207031 222.175781 "/>
<path style=" stroke:none;fill-rule:nonzero;fill:rgb(16.468811%,7.839966%,7.449341%);fill-opacity:1;" d="M 639.550781 199.152344 C 639.550781 199.152344 657.257812 212.230469 656.527344 248.484375 C 656.527344 248.484375 661.714844 205.070312 639.550781 199.152344 "/>
<path style=" stroke:none;fill-rule:nonzero;fill:rgb(16.468811%,7.839966%,7.449341%);fill-opacity:1;" d="M 645.742188 170.601562 C 645.742188 170.601562 663.371094 182.5 660.984375 212.160156 C 660.984375 212.160156 668.558594 179.007812 645.742188 170.601562 "/>
<path style=" stroke:none;fill-rule:nonzero;fill:rgb(16.468811%,7.839966%,7.449341%);fill-opacity:1;" d="M 651.128906 141.742188 C 651.128906 141.742188 665.214844 145.574219 664.804688 179.335938 C 664.804688 179.335938 671.4375 139.582031 651.128906 141.742188 "/>
<g clip-path="url(#clip2)" clip-rule="nonzero">
<path style=" stroke:none;fill-rule:nonzero;fill:rgb(16.468811%,7.839966%,7.449341%);fill-opacity:1;" d="M 404.320312 321.757812 C 404.320312 321.757812 413.269531 473.945312 404.320312 744.59375 C 404.320312 744.59375 430.738281 501.738281 404.320312 321.757812 "/>
</g>
<path style=" stroke:none;fill-rule:nonzero;fill:rgb(16.468811%,7.839966%,7.449341%);fill-opacity:1;" d="M 500.976562 273.902344 C 500.976562 273.902344 531.78125 474.023438 455.390625 712.421875 C 455.390625 712.421875 512.703125 449.695312 500.976562 273.902344 "/>
<path style=" stroke:none;fill-rule:nonzero;fill:rgb(16.468811%,7.839966%,7.449341%);fill-opacity:1;" d="M 455.390625 310.5625 C 455.390625 310.5625 481.914062 480.542969 429.90625 729.875 C 429.90625 729.875 471.746094 397.453125 455.390625 310.5625 "/>
<path style=" stroke:none;fill-rule:nonzero;fill:rgb(16.468811%,7.839966%,7.449341%);fill-opacity:1;" d="M 429.90625 319.628906 C 429.90625 319.628906 454.21875 479.597656 416.054688 738.140625 C 416.054688 738.140625 439.609375 439.0625 429.90625 319.628906 "/>
<path style=" stroke:none;fill-rule:nonzero;fill:rgb(16.468811%,7.839966%,7.449341%);fill-opacity:1;" d="M 476.382812 298.824219 C 476.382812 298.824219 495.605469 503.71875 446.03125 719.214844 C 446.03125 719.214844 486.710938 434.300781 476.382812 298.824219 "/>
<path style=" stroke:none;fill-rule:nonzero;fill:rgb(16.468811%,7.839966%,7.449341%);fill-opacity:1;" d="M 468.9375 188.730469 C 468.9375 188.730469 583.132812 179.335938 478.863281 692.742188 C 478.863281 692.742188 597.460938 212.160156 468.9375 188.730469 "/>
<path style=" stroke:none;fill-rule:nonzero;fill:rgb(16.468811%,7.839966%,7.449341%);fill-opacity:1;" d="M 542.898438 252.699219 C 542.898438 252.699219 591.578125 428.226562 495.109375 675.875 C 495.109375 675.875 577.445312 446.597656 542.898438 252.699219 "/>
<path style=" stroke:none;fill-rule:nonzero;fill:rgb(16.468811%,7.839966%,7.449341%);fill-opacity:1;" d="M 562.644531 267.0625 C 562.644531 267.0625 593.503906 389.621094 535.644531 583.96875 C 535.644531 583.96875 582 374.871094 562.644531 267.0625 "/>
<path style=" stroke:none;fill-rule:nonzero;fill:rgb(16.468811%,7.839966%,7.449341%);fill-opacity:1;" d="M 525.144531 223.816406 C 525.144531 223.816406 566.195312 336.945312 507.117188 604.714844 C 507.117188 604.714844 579.601562 346.796875 525.144531 223.816406 "/>
<path style=" stroke:none;fill-rule:nonzero;fill:rgb(16.468811%,7.839966%,7.449341%);fill-opacity:1;" d="M 463.039062 187.605469 C 463.039062 187.605469 529.011719 210.515625 514.679688 393.449219 C 514.679688 393.449219 525.9375 231.109375 463.039062 187.605469 "/>
<path style=" stroke:none;fill-rule:nonzero;fill:rgb(16.468811%,7.839966%,7.449341%);fill-opacity:1;" d="M 404.320312 196.023438 C 404.320312 196.023438 472.070312 204.558594 498.265625 253.691406 C 498.265625 253.691406 478.769531 198.957031 404.320312 196.023438 "/>
<path style=" stroke:none;fill-rule:nonzero;fill:rgb(16.468811%,7.839966%,7.449341%);fill-opacity:1;" d="M 433.21875 187.605469 C 433.21875 187.605469 469.871094 188.464844 493.613281 237.046875 C 493.613281 237.046875 466.703125 196.992188 433.21875 187.605469 "/>
<path style=" stroke:none;fill-rule:nonzero;fill:rgb(16.468811%,7.839966%,7.449341%);fill-opacity:1;" d="M 418.769531 190.816406 C 418.769531 190.816406 441.1875 192.648438 468.234375 212.324219 C 468.234375 212.324219 429.925781 193.3125 418.769531 190.816406 "/>
<path style=" stroke:none;fill-rule:nonzero;fill:rgb(16.468811%,7.839966%,7.449341%);fill-opacity:1;" d="M 451.289062 186.5 C 451.289062 186.5 470.964844 195.832031 482.015625 213.296875 C 482.015625 213.296875 459.113281 191.574219 451.289062 186.5 "/>
<path style=" stroke:none;fill-rule:nonzero;fill:rgb(16.468811%,7.839966%,7.449341%);fill-opacity:1;" d="M 404.320312 200.878906 C 404.320312 200.878906 441.167969 207.746094 478.574219 234.773438 C 478.574219 234.773438 455.433594 206.140625 404.320312 200.878906 "/>
<path style=" stroke:none;fill-rule:nonzero;fill:rgb(16.468811%,7.839966%,7.449341%);fill-opacity:1;" d="M 404.320312 207.15625 C 404.320312 207.15625 424.199219 209.761719 455.816406 227.953125 C 455.816406 227.953125 433.871094 207.769531 404.320312 207.15625 "/>
<path style=" stroke:none;fill-rule:nonzero;fill:rgb(16.468811%,7.839966%,7.449341%);fill-opacity:1;" d="M 404.320312 214.425781 C 404.320312 214.425781 423.515625 216.96875 448.027344 228.511719 C 448.027344 228.511719 418.660156 220.871094 404.320312 214.425781 "/>
<path style=" stroke:none;fill-rule:nonzero;fill:rgb(16.468811%,7.839966%,7.449341%);fill-opacity:1;" d="M 404.320312 219.574219 C 404.320312 219.574219 414.277344 226.246094 433.992188 230.867188 C 433.992188 230.867188 411.96875 232.203125 404.320312 219.574219 "/>
<path style=" stroke:none;fill-rule:nonzero;fill:rgb(16.468811%,7.839966%,7.449341%);fill-opacity:1;" d="M 418.378906 320.941406 C 418.378906 320.941406 431.390625 441.398438 421.5625 579.011719 C 421.5625 579.011719 421.191406 360.886719 418.378906 320.941406 "/>
<path style=" stroke:none;fill-rule:nonzero;fill:rgb(16.468811%,7.839966%,7.449341%);fill-opacity:1;" d="M 446.03125 314.371094 C 446.03125 314.371094 457.78125 405.386719 441.445312 561.144531 C 441.445312 561.144531 446.070312 353.210938 446.03125 314.371094 "/>
<path style=" stroke:none;fill-rule:nonzero;fill:rgb(16.468811%,7.839966%,7.449341%);fill-opacity:1;" d="M 466.652344 304.859375 C 466.652344 304.859375 474.621094 390.171875 466.652344 489.664062 C 466.652344 489.664062 466.84375 331.3125 466.652344 304.859375 "/>
<path style=" stroke:none;fill-rule:nonzero;fill:rgb(16.468811%,7.839966%,7.449341%);fill-opacity:1;" d="M 487.851562 290.527344 C 487.851562 290.527344 497.4375 360.769531 482.015625 517.917969 C 482.015625 517.917969 492.460938 330.640625 487.851562 290.527344 "/>
<path style=" stroke:none;fill-rule:nonzero;fill:rgb(16.468811%,7.839966%,7.449341%);fill-opacity:1;" d="M 232.976562 266.238281 C 232.976562 266.238281 193.316406 446.378906 295.164062 647.148438 C 295.164062 647.148438 181.121094 460.027344 232.976562 266.238281 "/>
<path style=" stroke:none;fill-rule:nonzero;fill:rgb(16.468811%,7.839966%,7.449341%);fill-opacity:1;" d="M 215.980469 259.953125 C 215.980469 259.953125 168.753906 456.234375 295.164062 660.265625 C 295.164062 660.265625 151.210938 453.195312 215.980469 259.953125 "/>
<path style=" stroke:none;fill-rule:nonzero;fill:rgb(16.468811%,7.839966%,7.449341%);fill-opacity:1;" d="M 208.96875 497.226562 C 208.96875 497.226562 170.832031 354.335938 200.8125 252.699219 C 200.8125 252.699219 154.121094 334.605469 208.96875 497.226562 "/>
<path style=" stroke:none;fill-rule:nonzero;fill:rgb(16.468811%,7.839966%,7.449341%);fill-opacity:1;" d="M 185.808594 238.363281 C 185.808594 238.363281 157.496094 284.746094 177.640625 406.789062 C 177.640625 406.789062 148.726562 284.992188 185.808594 238.363281 "/>
<path style=" stroke:none;fill-rule:nonzero;fill:rgb(16.468811%,7.839966%,7.449341%);fill-opacity:1;" d="M 177.625 222.175781 C 177.625 222.175781 155.1875 245.144531 159.972656 308.652344 C 159.972656 308.652344 148.476562 238.972656 177.625 222.175781 "/>
<path style=" stroke:none;fill-rule:nonzero;fill:rgb(16.468811%,7.839966%,7.449341%);fill-opacity:1;" d="M 170.289062 199.152344 C 170.289062 199.152344 152.578125 212.230469 153.3125 248.484375 C 153.3125 248.484375 148.125 205.070312 170.289062 199.152344 "/>
<path style=" stroke:none;fill-rule:nonzero;fill:rgb(16.468811%,7.839966%,7.449341%);fill-opacity:1;" d="M 164.089844 170.601562 C 164.089844 170.601562 146.46875 182.5 148.855469 212.160156 C 148.855469 212.160156 141.28125 179.007812 164.089844 170.601562 "/>
<path style=" stroke:none;fill-rule:nonzero;fill:rgb(16.468811%,7.839966%,7.449341%);fill-opacity:1;" d="M 158.707031 141.742188 C 158.707031 141.742188 144.628906 145.574219 145.035156 179.335938 C 145.035156 179.335938 138.402344 139.582031 158.707031 141.742188 "/>
<g clip-path="url(#clip3)" clip-rule="nonzero">
<path style=" stroke:none;fill-rule:nonzero;fill:rgb(16.468811%,7.839966%,7.449341%);fill-opacity:1;" d="M 405.523438 321.757812 C 405.523438 321.757812 396.566406 473.945312 405.523438 744.59375 C 405.523438 744.59375 379.105469 501.738281 405.523438 321.757812 "/>
</g>
<path style=" stroke:none;fill-rule:nonzero;fill:rgb(16.468811%,7.839966%,7.449341%);fill-opacity:1;" d="M 308.863281 273.902344 C 308.863281 273.902344 278.058594 474.023438 354.453125 712.421875 C 354.453125 712.421875 297.132812 449.695312 308.863281 273.902344 "/>
<path style=" stroke:none;fill-rule:nonzero;fill:rgb(16.468811%,7.839966%,7.449341%);fill-opacity:1;" d="M 354.453125 310.5625 C 354.453125 310.5625 327.925781 480.542969 379.933594 729.875 C 379.933594 729.875 338.097656 397.453125 354.453125 310.5625 "/>
<path style=" stroke:none;fill-rule:nonzero;fill:rgb(16.468811%,7.839966%,7.449341%);fill-opacity:1;" d="M 379.933594 319.628906 C 379.933594 319.628906 355.617188 479.597656 393.777344 738.140625 C 393.777344 738.140625 370.226562 439.0625 379.933594 319.628906 "/>
<path style=" stroke:none;fill-rule:nonzero;fill:rgb(16.468811%,7.839966%,7.449341%);fill-opacity:1;" d="M 333.457031 298.824219 C 333.457031 298.824219 314.238281 503.71875 363.808594 719.214844 C 363.808594 719.214844 323.128906 434.300781 333.457031 298.824219 "/>
<path style=" stroke:none;fill-rule:nonzero;fill:rgb(16.468811%,7.839966%,7.449341%);fill-opacity:1;" d="M 340.902344 188.730469 C 340.902344 188.730469 226.707031 179.335938 330.976562 692.742188 C 330.976562 692.742188 212.378906 212.160156 340.902344 188.730469 "/>
<path style=" stroke:none;fill-rule:nonzero;fill:rgb(16.468811%,7.839966%,7.449341%);fill-opacity:1;" d="M 266.941406 252.699219 C 266.941406 252.699219 218.257812 428.226562 314.730469 675.875 C 314.730469 675.875 232.394531 446.597656 266.941406 252.699219 "/>
<path style=" stroke:none;fill-rule:nonzero;fill:rgb(16.468811%,7.839966%,7.449341%);fill-opacity:1;" d="M 247.195312 267.0625 C 247.195312 267.0625 216.339844 389.621094 274.195312 583.96875 C 274.195312 583.96875 227.839844 374.871094 247.195312 267.0625 "/>
<path style=" stroke:none;fill-rule:nonzero;fill:rgb(16.468811%,7.839966%,7.449341%);fill-opacity:1;" d="M 284.691406 223.816406 C 284.691406 223.816406 243.644531 336.945312 302.722656 604.714844 C 302.722656 604.714844 230.238281 346.796875 284.691406 223.816406 "/>
<path style=" stroke:none;fill-rule:nonzero;fill:rgb(16.468811%,7.839966%,7.449341%);fill-opacity:1;" d="M 346.800781 187.605469 C 346.800781 187.605469 280.828125 210.515625 295.164062 393.449219 C 295.164062 393.449219 283.90625 231.109375 346.800781 187.605469 "/>
<path style=" stroke:none;fill-rule:nonzero;fill:rgb(16.468811%,7.839966%,7.449341%);fill-opacity:1;" d="M 405.523438 196.023438 C 405.523438 196.023438 337.769531 204.558594 311.574219 253.691406 C 311.574219 253.691406 331.074219 198.957031 405.523438 196.023438 "/>
<path style=" stroke:none;fill-rule:nonzero;fill:rgb(16.468811%,7.839966%,7.449341%);fill-opacity:1;" d="M 376.621094 187.605469 C 376.621094 187.605469 339.96875 188.464844 316.226562 237.046875 C 316.226562 237.046875 343.128906 196.992188 376.621094 187.605469 "/>
<path style=" stroke:none;fill-rule:nonzero;fill:rgb(16.468811%,7.839966%,7.449341%);fill-opacity:1;" d="M 391.070312 190.816406 C 391.070312 190.816406 368.652344 192.648438 341.609375 212.324219 C 341.609375 212.324219 379.917969 193.3125 391.070312 190.816406 "/>
<path style=" stroke:none;fill-rule:nonzero;fill:rgb(16.468811%,7.839966%,7.449341%);fill-opacity:1;" d="M 358.550781 186.5 C 358.550781 186.5 338.875 195.832031 327.824219 213.296875 C 327.824219 213.296875 350.730469 191.574219 358.550781 186.5 "/>
<path style=" stroke:none;fill-rule:nonzero;fill:rgb(16.468811%,7.839966%,7.449341%);fill-opacity:1;" d="M 405.523438 200.878906 C 405.523438 200.878906 368.664062 207.746094 331.257812 234.773438 C 331.257812 234.773438 354.40625 206.140625 405.523438 200.878906 "/>
<path style=" stroke:none;fill-rule:nonzero;fill:rgb(16.468811%,7.839966%,7.449341%);fill-opacity:1;" d="M 405.523438 207.15625 C 405.523438 207.15625 385.640625 209.761719 354.015625 227.953125 C 354.015625 227.953125 375.964844 207.769531 405.523438 207.15625 "/>
<path style=" stroke:none;fill-rule:nonzero;fill:rgb(16.468811%,7.839966%,7.449341%);fill-opacity:1;" d="M 405.523438 214.425781 C 405.523438 214.425781 386.320312 216.96875 361.8125 228.511719 C 361.8125 228.511719 391.179688 220.871094 405.523438 214.425781 "/>
<path style=" stroke:none;fill-rule:nonzero;fill:rgb(16.468811%,7.839966%,7.449341%);fill-opacity:1;" d="M 405.523438 219.574219 C 405.523438 219.574219 395.5625 226.246094 375.847656 230.867188 C 375.847656 230.867188 397.863281 232.203125 405.523438 219.574219 "/>
<path style=" stroke:none;fill-rule:nonzero;fill:rgb(16.468811%,7.839966%,7.449341%);fill-opacity:1;" d="M 391.460938 320.941406 C 391.460938 320.941406 378.453125 441.398438 388.277344 579.011719 C 388.277344 579.011719 388.648438 360.886719 391.460938 320.941406 "/>
<path style=" stroke:none;fill-rule:nonzero;fill:rgb(16.468811%,7.839966%,7.449341%);fill-opacity:1;" d="M 363.808594 314.371094 C 363.808594 314.371094 352.058594 405.386719 368.390625 561.144531 C 368.390625 561.144531 363.773438 353.210938 363.808594 314.371094 "/>
<path style=" stroke:none;fill-rule:nonzero;fill:rgb(16.468811%,7.839966%,7.449341%);fill-opacity:1;" d="M 343.1875 304.859375 C 343.1875 304.859375 335.21875 390.171875 343.1875 489.664062 C 343.1875 489.664062 342.996094 331.3125 343.1875 304.859375 "/>
<path style=" stroke:none;fill-rule:nonzero;fill:rgb(16.468811%,7.839966%,7.449341%);fill-opacity:1;" d="M 321.984375 290.527344 C 321.984375 290.527344 312.402344 360.769531 327.824219 517.917969 C 327.824219 517.917969 317.378906 330.640625 321.984375 290.527344 "/>
</g>
</svg>
