<?xml version="1.0" encoding="UTF-8"?>
<svg xmlns="http://www.w3.org/2000/svg" xmlns:xlink="http://www.w3.org/1999/xlink" width="810pt" height="809.999993pt" viewBox="0 0 810 809.999993" version="1.2">
<defs>
<clipPath id="clip1">
  <path d="M 69.292969 416 L 728.492188 416 L 728.492188 568.265625 L 69.292969 568.265625 Z M 69.292969 416 "/>
</clipPath>
</defs>
<g id="surface1">
<path style=" stroke:none;fill-rule:nonzero;fill:rgb(7.839966%,7.058716%,6.269836%);fill-opacity:1;" d="M 563.695312 438.402344 L 563.695312 438.417969 C 563.695312 438.417969 563.695312 438.417969 563.679688 438.429688 C 563.667969 438.445312 563.640625 438.472656 563.609375 438.496094 C 561.996094 440.136719 534.011719 466.347656 398.894531 466.347656 C 263.769531 466.347656 235.789062 440.136719 234.171875 438.496094 C 234.144531 438.472656 234.117188 438.445312 234.105469 438.429688 C 234.089844 438.417969 234.089844 438.417969 234.089844 438.417969 L 234.089844 438.402344 C 235.679688 436.328125 236.769531 431.535156 236.769531 431.535156 C 250.222656 342.800781 277.132812 275.570312 277.132812 275.570312 C 290.585938 235.296875 336.328125 244.851562 336.328125 244.851562 C 336.328125 244.851562 356.847656 247.582031 368.285156 259.527344 C 379.722656 271.472656 398.894531 271.472656 398.894531 271.472656 C 398.894531 271.472656 418.0625 271.472656 429.5 259.527344 C 440.9375 247.582031 461.453125 244.851562 461.453125 244.851562 C 461.453125 244.851562 507.199219 235.296875 520.652344 275.570312 C 520.652344 275.570312 547.5625 342.800781 561.015625 431.535156 C 561.015625 431.535156 562.105469 436.328125 563.695312 438.402344 "/>
<g clip-path="url(#clip1)" clip-rule="nonzero">
<path style=" stroke:none;fill-rule:nonzero;fill:rgb(7.839966%,7.058716%,6.269836%);fill-opacity:1;" d="M 717.425781 438.019531 C 717.425781 438.019531 577.390625 568.285156 398.894531 568.285156 C 220.394531 568.285156 80.363281 438.019531 80.363281 438.019531 C 80.363281 438.019531 60.855469 420.957031 73.636719 416.863281 C 86.417969 412.765625 125.097656 438.703125 125.097656 438.703125 L 228.804688 444.738281 C 228.804688 444.738281 230.945312 440.066406 233.070312 439.277344 C 233.417969 439.140625 233.769531 438.839844 234.089844 438.417969 C 226.207031 462.160156 234.089844 467.617188 234.089844 467.617188 C 234.089844 467.617188 234.089844 467.632812 234.105469 467.632812 C 234.117188 467.648438 234.144531 467.671875 234.171875 467.699219 C 235.789062 469.335938 263.769531 495.5625 398.894531 495.5625 C 534.011719 495.5625 561.996094 469.335938 563.609375 467.699219 C 563.640625 467.671875 563.667969 467.648438 563.679688 467.632812 C 563.695312 467.632812 563.695312 467.617188 563.695312 467.617188 C 563.695312 467.617188 571.578125 462.160156 563.695312 438.417969 C 564.019531 438.839844 564.367188 439.140625 564.71875 439.277344 C 566.839844 440.066406 568.980469 444.738281 568.980469 444.738281 L 672.683594 438.703125 C 672.683594 438.703125 711.367188 412.765625 724.148438 416.863281 C 736.929688 420.957031 717.425781 438.019531 717.425781 438.019531 "/>
</g>
<path style=" stroke:none;fill-rule:nonzero;fill:rgb(59.999084%,34.118652%,23.919678%);fill-opacity:1;" d="M 544.882812 471.890625 C 541.65625 472.558594 538.332031 469.664062 537.484375 465.421875 C 537.242188 464.234375 537.214844 463.070312 537.390625 462.007812 C 537.792969 459.207031 539.449219 456.996094 541.789062 456.503906 C 545.03125 455.835938 548.34375 458.742188 549.191406 462.988281 C 549.230469 463.222656 549.269531 463.441406 549.285156 463.671875 C 549.835938 467.65625 547.953125 471.265625 544.882812 471.890625 Z M 497.875 482.960938 C 494.09375 483.480469 490.570312 480.410156 489.988281 476.125 C 489.871094 475.238281 489.894531 474.375 490.019531 473.542969 C 490.542969 470.359375 492.800781 467.820312 495.804688 467.398438 C 499.527344 466.882812 503.027344 469.871094 503.648438 474.089844 L 503.648438 474.101562 C 503.660156 474.140625 503.675781 474.195312 503.675781 474.238281 C 504.25 478.539062 501.652344 482.445312 497.875 482.960938 Z M 445.375 487.75 C 441.109375 487.75 437.640625 484.230469 437.640625 479.902344 C 437.640625 479.4375 437.679688 478.976562 437.757812 478.539062 C 438.394531 474.855469 441.566406 472.054688 445.375 472.054688 C 449.195312 472.054688 452.363281 474.855469 452.992188 478.539062 C 453.070312 478.976562 453.113281 479.4375 453.113281 479.902344 C 453.113281 484.230469 449.65625 487.75 445.375 487.75 Z M 398.894531 489.160156 C 394.613281 489.160156 391.15625 485.652344 391.15625 481.308594 C 391.15625 480.847656 391.199219 480.382812 391.273438 479.945312 C 391.910156 476.257812 395.070312 473.460938 398.894531 473.460938 C 402.714844 473.460938 405.875 476.257812 406.507812 479.945312 C 406.585938 480.382812 406.632812 480.847656 406.632812 481.308594 C 406.632812 485.652344 403.171875 489.160156 398.894531 489.160156 Z M 352.410156 487.75 C 348.128906 487.75 344.671875 484.230469 344.671875 479.902344 C 344.671875 479.4375 344.714844 478.976562 344.792969 478.539062 C 345.425781 474.855469 348.585938 472.054688 352.410156 472.054688 C 356.214844 472.054688 359.390625 474.855469 360.023438 478.539062 C 360.101562 478.976562 360.144531 479.4375 360.144531 479.902344 C 360.144531 484.230469 356.675781 487.75 352.410156 487.75 Z M 307.792969 476.125 C 307.214844 480.410156 303.6875 483.480469 299.910156 482.960938 C 296.128906 482.445312 293.53125 478.539062 294.113281 474.238281 C 294.113281 474.195312 294.125 474.140625 294.136719 474.101562 L 294.136719 474.089844 C 294.757812 469.871094 298.257812 466.882812 301.980469 467.398438 C 304.984375 467.820312 307.242188 470.359375 307.765625 473.542969 C 307.886719 474.375 307.914062 475.238281 307.792969 476.125 Z M 260.300781 465.421875 C 259.453125 469.664062 256.128906 472.558594 252.902344 471.890625 C 249.832031 471.265625 247.949219 467.65625 248.5 463.671875 C 248.515625 463.441406 248.554688 463.222656 248.59375 462.988281 C 249.441406 458.742188 252.753906 455.835938 255.996094 456.503906 C 258.324219 456.996094 259.976562 459.207031 260.394531 462.007812 C 260.570312 463.085938 260.542969 464.246094 260.300781 465.421875 Z M 563.695312 438.417969 C 563.695312 438.417969 563.695312 438.417969 563.679688 438.429688 C 563.667969 438.445312 563.640625 438.472656 563.609375 438.496094 C 561.996094 440.136719 534.011719 466.347656 398.894531 466.347656 C 263.769531 466.347656 235.789062 440.136719 234.171875 438.496094 C 234.144531 438.472656 234.117188 438.445312 234.105469 438.429688 C 234.089844 438.417969 234.089844 438.417969 234.089844 438.417969 C 226.207031 462.160156 234.089844 467.617188 234.089844 467.617188 C 234.089844 467.617188 234.089844 467.632812 234.105469 467.632812 C 234.117188 467.648438 234.144531 467.671875 234.171875 467.699219 C 235.789062 469.335938 263.769531 495.5625 398.894531 495.5625 C 534.011719 495.5625 561.996094 469.335938 563.609375 467.699219 C 563.640625 467.671875 563.667969 467.648438 563.679688 467.632812 C 563.695312 467.632812 563.695312 467.617188 563.695312 467.617188 C 563.695312 467.617188 571.578125 462.160156 563.695312 438.417969 "/>
<path style=" stroke:none;fill-rule:nonzero;fill:rgb(59.999084%,34.118652%,23.919678%);fill-opacity:1;" d="M 497.875 482.960938 C 494.09375 483.480469 490.570312 480.410156 489.988281 476.125 C 489.871094 475.238281 489.894531 474.375 490.019531 473.542969 C 490.542969 470.359375 492.800781 467.820312 495.804688 467.398438 C 499.527344 466.882812 503.027344 469.871094 503.648438 474.089844 L 503.648438 474.101562 C 503.660156 474.140625 503.675781 474.195312 503.675781 474.238281 C 504.25 478.539062 501.652344 482.445312 497.875 482.960938 "/>
<path style="fill:none;stroke-width:10.834;stroke-linecap:butt;stroke-linejoin:miter;stroke:rgb(83.918762%,59.999084%,20.779419%);stroke-opacity:1;stroke-miterlimit:10;" d="M 4980.196735 992.353128 C 4936.257771 986.310652 4895.314646 1022.020323 4888.551314 1071.859394 C 4887.189569 1082.172492 4887.461918 1092.212998 4888.914446 1101.890046 C 4894.996905 1138.91725 4921.233187 1168.448149 4956.139244 1173.354821 C 4999.397336 1179.351865 5040.068112 1144.596269 5047.285359 1095.529545 L 5047.285359 1095.393248 C 5047.421533 1094.938927 5047.603099 1094.302877 5047.603099 1093.803123 C 5054.275649 1043.782324 5024.090307 998.350172 4980.196735 992.353128 Z M 4980.196735 992.353128 " transform="matrix(0.0860569,0,0,-0.0859799,69.294821,568.283319)"/>
<path style=" stroke:none;fill-rule:nonzero;fill:rgb(59.999084%,34.118652%,23.919678%);fill-opacity:1;" d="M 453.113281 479.902344 C 453.113281 484.230469 449.65625 487.75 445.375 487.75 C 441.109375 487.75 437.640625 484.230469 437.640625 479.902344 C 437.640625 479.4375 437.679688 478.976562 437.757812 478.539062 C 438.394531 474.855469 441.566406 472.054688 445.375 472.054688 C 449.195312 472.054688 452.363281 474.855469 452.992188 478.539062 C 453.070312 478.976562 453.113281 479.4375 453.113281 479.902344 "/>
<path style="fill:none;stroke-width:10.834;stroke-linecap:butt;stroke-linejoin:miter;stroke:rgb(83.918762%,59.999084%,20.779419%);stroke-opacity:1;stroke-miterlimit:10;" d="M 4460.055635 1027.926503 C 4460.055635 977.587679 4419.884166 936.65331 4370.135091 936.65331 C 4320.567582 936.65331 4280.259938 977.587679 4280.259938 1027.926503 C 4280.259938 1033.332929 4280.713853 1038.693923 4281.621683 1043.782324 C 4289.020496 1086.624843 4325.878387 1119.199696 4370.135091 1119.199696 C 4414.52797 1119.199696 4451.340469 1086.624843 4458.648499 1043.782324 C 4459.556329 1038.693923 4460.055635 1033.332929 4460.055635 1027.926503 Z M 4460.055635 1027.926503 " transform="matrix(0.0860569,0,0,-0.0859799,69.294821,568.283319)"/>
<path style=" stroke:none;fill-rule:nonzero;fill:rgb(59.999084%,34.118652%,23.919678%);fill-opacity:1;" d="M 406.632812 481.308594 C 406.632812 485.652344 403.171875 489.160156 398.894531 489.160156 C 394.613281 489.160156 391.15625 485.652344 391.15625 481.308594 C 391.15625 480.847656 391.199219 480.382812 391.273438 479.945312 C 391.910156 476.257812 395.070312 473.460938 398.894531 473.460938 C 402.714844 473.460938 405.875 476.257812 406.507812 479.945312 C 406.585938 480.382812 406.632812 480.847656 406.632812 481.308594 "/>
<path style="fill:none;stroke-width:10.834;stroke-linecap:butt;stroke-linejoin:miter;stroke:rgb(83.918762%,59.999084%,20.779419%);stroke-opacity:1;stroke-miterlimit:10;" d="M 3919.94228 1011.570928 C 3919.94228 961.050376 3879.725419 920.252303 3830.021736 920.252303 C 3780.272661 920.252303 3740.101191 961.050376 3740.101191 1011.570928 C 3740.101191 1016.931922 3740.600498 1022.338348 3741.462936 1027.426749 C 3748.861749 1070.314701 3785.583465 1102.844121 3830.021736 1102.844121 C 3874.414614 1102.844121 3911.136331 1070.314701 3918.489752 1027.426749 C 3919.397582 1022.338348 3919.94228 1016.931922 3919.94228 1011.570928 Z M 3919.94228 1011.570928 " transform="matrix(0.0860569,0,0,-0.0859799,69.294821,568.283319)"/>
<path style=" stroke:none;fill-rule:nonzero;fill:rgb(59.999084%,34.118652%,23.919678%);fill-opacity:1;" d="M 360.144531 479.902344 C 360.144531 484.230469 356.675781 487.75 352.410156 487.75 C 348.128906 487.75 344.671875 484.230469 344.671875 479.902344 C 344.671875 479.4375 344.714844 478.976562 344.792969 478.539062 C 345.425781 474.855469 348.585938 472.054688 352.410156 472.054688 C 356.214844 472.054688 359.390625 474.855469 360.023438 478.539062 C 360.101562 478.976562 360.144531 479.4375 360.144531 479.902344 "/>
<path style="fill:none;stroke-width:10.834;stroke-linecap:butt;stroke-linejoin:miter;stroke:rgb(83.918762%,59.999084%,20.779419%);stroke-opacity:1;stroke-miterlimit:10;" d="M 3379.738141 1027.926503 C 3379.738141 977.587679 3339.430497 936.65331 3289.862988 936.65331 C 3240.113914 936.65331 3199.942444 977.587679 3199.942444 1027.926503 C 3199.942444 1033.332929 3200.441751 1038.693923 3201.34958 1043.782324 C 3208.703002 1086.624843 3245.424718 1119.199696 3289.862988 1119.199696 C 3334.074301 1119.199696 3370.977584 1086.624843 3378.331005 1043.782324 C 3379.238835 1038.693923 3379.738141 1033.332929 3379.738141 1027.926503 Z M 3379.738141 1027.926503 " transform="matrix(0.0860569,0,0,-0.0859799,69.294821,568.283319)"/>
<path style=" stroke:none;fill-rule:nonzero;fill:rgb(59.999084%,34.118652%,23.919678%);fill-opacity:1;" d="M 307.792969 476.125 C 307.214844 480.410156 303.6875 483.480469 299.910156 482.960938 C 296.128906 482.445312 293.53125 478.539062 294.113281 474.238281 C 294.113281 474.195312 294.125 474.140625 294.136719 474.101562 L 294.136719 474.089844 C 294.757812 469.871094 298.257812 466.882812 301.980469 467.398438 C 304.984375 467.820312 307.242188 470.359375 307.765625 473.542969 C 307.886719 474.375 307.914062 475.238281 307.792969 476.125 "/>
<path style="fill:none;stroke-width:10.834;stroke-linecap:butt;stroke-linejoin:miter;stroke:rgb(83.918762%,59.999084%,20.779419%);stroke-opacity:1;stroke-miterlimit:10;" d="M 2771.401374 1071.859394 C 2764.683434 1022.020323 2723.694917 986.310652 2679.801345 992.353128 C 2635.862381 998.350172 2605.677039 1043.782324 2612.440372 1093.803123 C 2612.440372 1094.302877 2612.576546 1094.938927 2612.712721 1095.393248 L 2612.712721 1095.529545 C 2619.929968 1144.596269 2660.600744 1179.351865 2703.858835 1173.354821 C 2738.764892 1168.448149 2765.001174 1138.91725 2771.083634 1101.890046 C 2772.49077 1092.212998 2772.808511 1082.172492 2771.401374 1071.859394 Z M 2771.401374 1071.859394 " transform="matrix(0.0860569,0,0,-0.0859799,69.294821,568.283319)"/>
<path style=" stroke:none;fill-rule:nonzero;fill:rgb(59.999084%,34.118652%,23.919678%);fill-opacity:1;" d="M 260.300781 465.421875 C 259.453125 469.664062 256.128906 472.558594 252.902344 471.890625 C 249.832031 471.265625 247.949219 467.65625 248.5 463.671875 C 248.515625 463.441406 248.554688 463.222656 248.59375 462.988281 C 249.441406 458.742188 252.753906 455.835938 255.996094 456.503906 C 258.324219 456.996094 259.976562 459.207031 260.394531 462.007812 C 260.570312 463.085938 260.542969 464.246094 260.300781 465.421875 "/>
<path style="fill:none;stroke-width:10.834;stroke-linecap:butt;stroke-linejoin:miter;stroke:rgb(83.918762%,59.999084%,20.779419%);stroke-opacity:1;stroke-miterlimit:10;" d="M 2219.531623 1196.34349 C 2209.681669 1147.004173 2171.05351 1113.338948 2133.560138 1121.107846 C 2097.882426 1128.376991 2076.003727 1170.356299 2082.403927 1216.697094 C 2082.585493 1219.377591 2083.039408 1221.921791 2083.493323 1224.64772 C 2093.343277 1274.032469 2131.835261 1307.83399 2169.510199 1300.065092 C 2196.563528 1294.340641 2215.764129 1268.626043 2220.621018 1236.05119 C 2222.663635 1223.511916 2222.345895 1210.018567 2219.531623 1196.34349 Z M 2219.531623 1196.34349 " transform="matrix(0.0860569,0,0,-0.0859799,69.294821,568.283319)"/>
<path style=" stroke:none;fill-rule:nonzero;fill:rgb(59.999084%,34.118652%,23.919678%);fill-opacity:1;" d="M 544.882812 471.890625 C 541.65625 472.558594 538.332031 469.664062 537.484375 465.421875 C 537.242188 464.234375 537.214844 463.070312 537.390625 462.007812 C 537.792969 459.207031 539.449219 456.996094 541.789062 456.503906 C 545.03125 455.835938 548.34375 458.742188 549.191406 462.988281 C 549.230469 463.222656 549.269531 463.441406 549.285156 463.671875 C 549.835938 467.65625 547.953125 471.265625 544.882812 471.890625 "/>
<path style="fill:none;stroke-width:10.834;stroke-linecap:butt;stroke-linejoin:miter;stroke:rgb(83.918762%,59.999084%,20.779419%);stroke-opacity:1;stroke-miterlimit:10;" d="M 5526.437942 1121.107846 C 5488.94457 1113.338948 5450.316411 1147.004173 5440.466457 1196.34349 C 5437.652185 1210.154864 5437.334444 1223.693645 5439.377061 1236.05119 C 5444.052385 1268.626043 5463.298377 1294.340641 5490.48788 1300.065092 C 5528.162818 1307.83399 5566.654803 1274.032469 5576.504757 1224.64772 C 5576.958671 1221.921791 5577.412586 1219.377591 5577.594152 1216.697094 C 5583.994353 1170.356299 5562.115654 1128.376991 5526.437942 1121.107846 Z M 5526.437942 1121.107846 " transform="matrix(0.0860569,0,0,-0.0859799,69.294821,568.283319)"/>
</g>
</svg>
