<?xml version="1.0" encoding="UTF-8"?>
<svg xmlns="http://www.w3.org/2000/svg" xmlns:xlink="http://www.w3.org/1999/xlink" width="810pt" height="809.999993pt" viewBox="0 0 810 809.999993" version="1.2">
<defs>
<clipPath id="clip1">
  <path d="M 81 662 L 169 662 L 169 729.375 L 81 729.375 Z M 81 662 "/>
</clipPath>
<clipPath id="clip2">
  <path d="M 621 91.125 L 735 91.125 L 735 192 L 621 192 Z M 621 91.125 "/>
</clipPath>
</defs>
<g id="surface1">
<path style=" stroke:none;fill-rule:nonzero;fill:rgb(48.239136%,67.059326%,16.468811%);fill-opacity:1;" d="M 121.539062 632.605469 C 137.738281 585.84375 167.417969 542.285156 205.816406 508.554688 C 283.839844 440.042969 334.449219 383.449219 505.199219 346.5 C 595.46875 326.9375 709.523438 267.6875 679.355469 162.785156 C 720.648438 214.460938 739.289062 264.332031 694.582031 336.375 C 660.308594 391.722656 614.453125 528.96875 617.222656 598.207031 C 617.925781 616.4375 619.71875 657.050781 639.359375 717.773438 C 554.605469 665.492188 491.050781 652.65625 407.566406 639.933594 C 297.1875 623.164062 175.285156 667.410156 108.445312 727.160156 C 106.074219 695.496094 110.941406 663.300781 121.539062 632.605469 "/>
<g clip-path="url(#clip1)" clip-rule="nonzero">
<path style=" stroke:none;fill-rule:nonzero;fill:rgb(90.589905%,10.198975%,26.669312%);fill-opacity:1;" d="M 112.957031 729.71875 C 98.277344 709.082031 87.984375 691.777344 81.105469 662.875 C 114.015625 668.386719 143.152344 676.75 168.980469 688.355469 C 146.898438 702.871094 127.289062 711.070312 112.957031 729.71875 "/>
</g>
<path style=" stroke:none;fill-rule:nonzero;fill:rgb(90.589905%,10.198975%,26.669312%);fill-opacity:1;" d="M 168.980469 688.355469 C 165.53125 663.140625 165.21875 635.417969 168.847656 606.695312 C 196.984375 621.464844 222.03125 637.640625 243.785156 654.695312 C 216.984375 663.683594 191.960938 674.730469 168.980469 688.355469 "/>
<path style=" stroke:none;fill-rule:nonzero;fill:rgb(90.589905%,10.198975%,26.669312%);fill-opacity:1;" d="M 243.785156 654.695312 C 248.8125 629.199219 256.824219 602.84375 267.921875 575.832031 C 290.78125 595.78125 310.804688 617.234375 327.503906 638.429688 C 298.953125 641.273438 271.167969 647.035156 243.785156 654.695312 "/>
<path style=" stroke:none;fill-rule:nonzero;fill:rgb(90.589905%,10.198975%,26.669312%);fill-opacity:1;" d="M 327.503906 638.429688 C 338.949219 614.234375 354.007812 590.808594 372.71875 566.988281 C 389.941406 591.679688 401.902344 616.875 410.773438 641.328125 C 383.230469 637.226562 356.171875 636.308594 327.503906 638.429688 "/>
<path style=" stroke:none;fill-rule:nonzero;fill:rgb(90.589905%,10.198975%,26.669312%);fill-opacity:1;" d="M 410.773438 641.328125 C 432.691406 620.992188 451.589844 600.148438 472.777344 579.691406 C 484.230469 605.757812 494.84375 631.140625 501 657.558594 C 473.152344 650.363281 445.117188 646.824219 410.773438 641.328125 "/>
<path style=" stroke:none;fill-rule:nonzero;fill:rgb(90.589905%,10.198975%,26.669312%);fill-opacity:1;" d="M 501 657.558594 C 521.980469 638.429688 545.710938 620.601562 573.183594 606.40625 C 579.167969 633.394531 578.917969 662.742188 574.796875 687.703125 C 552.949219 674.636719 528.730469 663.957031 501 657.558594 "/>
<path style=" stroke:none;fill-rule:nonzero;fill:rgb(90.589905%,10.198975%,26.669312%);fill-opacity:1;" d="M 573.496094 687.5 C 594.429688 694.351562 619.484375 704.96875 640.117188 719.0625 C 649.472656 702.160156 657.492188 683.382812 663.152344 663.0625 C 632.054688 667.566406 598.292969 676.5 573.496094 687.5 "/>
<g clip-path="url(#clip2)" clip-rule="nonzero">
<path style=" stroke:none;fill-rule:nonzero;fill:rgb(90.589905%,10.198975%,26.669312%);fill-opacity:1;" d="M 734.445312 141.28125 C 734.445312 168.9375 709.070312 191.417969 677.75 191.417969 C 646.398438 191.417969 621.023438 168.9375 621.023438 141.28125 C 621.023438 113.625 646.398438 91.15625 677.75 91.15625 C 709.070312 91.15625 734.445312 113.625 734.445312 141.28125 "/>
</g>
</g>
</svg>
