<?xml version="1.0" encoding="UTF-8"?>
<svg xmlns="http://www.w3.org/2000/svg" xmlns:xlink="http://www.w3.org/1999/xlink" width="810pt" height="809.999993pt" viewBox="0 0 810 809.999993" version="1.2">
<defs>
<clipPath id="clip1">
  <path d="M 167 197.828125 L 671 197.828125 L 671 610 L 167 610 Z M 167 197.828125 "/>
</clipPath>
</defs>
<g id="surface1">
<g clip-path="url(#clip1)" clip-rule="nonzero">
<path style=" stroke:none;fill-rule:nonzero;fill:rgb(0%,0%,0%);fill-opacity:1;" d="M 670.144531 439.148438 C 667.660156 333.382812 609.519531 322.148438 570.917969 308.078125 C 551.441406 300.964844 603.171875 281.257812 603.171875 281.257812 C 555.542969 242.519531 515.773438 271.1875 488.570312 263.375 C 444.398438 250.71875 503.449219 223.15625 503.449219 223.15625 C 436.457031 205.785156 429.515625 243.242188 406.199219 243.507812 C 366.265625 244.011719 419.101562 197.847656 419.101562 197.847656 C 263.820312 215.726562 224.203125 347.324219 224.203125 347.324219 C 209.234375 343.804688 217.421875 305.84375 217.421875 305.84375 C 139.289062 398.929688 175.433594 608.511719 175.433594 608.511719 C 190.839844 613.410156 204.761719 606.933594 204.761719 562.03125 C 204.761719 490.285156 322.496094 451.15625 417.238281 450.570312 C 513.207031 449.984375 626 500.214844 626 562.03125 C 626 606.933594 636.109375 613.410156 651.523438 608.511719 C 651.523438 608.511719 671.78125 508.945312 670.144531 439.148438 "/>
</g>
</g>
</svg>
