<?xml version="1.0" encoding="UTF-8"?>
<svg xmlns="http://www.w3.org/2000/svg" xmlns:xlink="http://www.w3.org/1999/xlink" width="810pt" height="809.999993pt" viewBox="0 0 810 809.999993" version="1.2">
<defs>
<clipPath id="clip1">
  <path d="M 90 409 L 705 409 L 705 665 L 90 665 Z M 90 409 "/>
</clipPath>
<clipPath id="clip2">
  <path d="M 238.742188 -28.316406 L 833.96875 227.828125 L 571.300781 838.210938 L -23.925781 582.066406 Z M 238.742188 -28.316406 "/>
</clipPath>
<clipPath id="clip3">
  <path d="M 833.96875 227.828125 L 238.742188 -28.316406 L -23.925781 582.066406 L 571.300781 838.210938 Z M 833.96875 227.828125 "/>
</clipPath>
<clipPath id="clip4">
  <path d="M 833.96875 227.828125 L 238.742188 -28.316406 L -23.882812 581.96875 L 571.34375 838.113281 Z M 833.96875 227.828125 "/>
</clipPath>
<clipPath id="clip5">
  <path d="M 86 405 L 709 405 L 709 669 L 86 669 Z M 86 405 "/>
</clipPath>
<clipPath id="clip6">
  <path d="M 238.742188 -28.316406 L 833.96875 227.828125 L 571.300781 838.210938 L -23.925781 582.066406 Z M 238.742188 -28.316406 "/>
</clipPath>
<clipPath id="clip7">
  <path d="M 833.96875 227.828125 L 238.742188 -28.316406 L -23.925781 582.066406 L 571.300781 838.210938 Z M 833.96875 227.828125 "/>
</clipPath>
<clipPath id="clip8">
  <path d="M 833.96875 227.828125 L 238.742188 -28.316406 L -23.882812 581.96875 L 571.34375 838.113281 Z M 833.96875 227.828125 "/>
</clipPath>
<clipPath id="clip9">
  <path d="M 166 137 L 557 137 L 557 545 L 166 545 Z M 166 137 "/>
</clipPath>
<clipPath id="clip10">
  <path d="M 238.742188 -28.316406 L 833.96875 227.828125 L 571.300781 838.210938 L -23.925781 582.066406 Z M 238.742188 -28.316406 "/>
</clipPath>
<clipPath id="clip11">
  <path d="M 833.96875 227.828125 L 238.742188 -28.316406 L -23.925781 582.066406 L 571.300781 838.210938 Z M 833.96875 227.828125 "/>
</clipPath>
<clipPath id="clip12">
  <path d="M 833.96875 227.828125 L 238.742188 -28.316406 L -23.882812 581.96875 L 571.34375 838.113281 Z M 833.96875 227.828125 "/>
</clipPath>
<clipPath id="clip13">
  <path d="M 162 133 L 561 133 L 561 549 L 162 549 Z M 162 133 "/>
</clipPath>
<clipPath id="clip14">
  <path d="M 238.742188 -28.316406 L 833.96875 227.828125 L 571.300781 838.210938 L -23.925781 582.066406 Z M 238.742188 -28.316406 "/>
</clipPath>
<clipPath id="clip15">
  <path d="M 833.96875 227.828125 L 238.742188 -28.316406 L -23.925781 582.066406 L 571.300781 838.210938 Z M 833.96875 227.828125 "/>
</clipPath>
<clipPath id="clip16">
  <path d="M 833.96875 227.828125 L 238.742188 -28.316406 L -23.882812 581.96875 L 571.34375 838.113281 Z M 833.96875 227.828125 "/>
</clipPath>
<clipPath id="clip17">
  <path d="M 165 93 L 557 93 L 557 245 L 165 245 Z M 165 93 "/>
</clipPath>
<clipPath id="clip18">
  <path d="M 238.742188 -28.316406 L 833.96875 227.828125 L 571.300781 838.210938 L -23.925781 582.066406 Z M 238.742188 -28.316406 "/>
</clipPath>
<clipPath id="clip19">
  <path d="M 833.96875 227.828125 L 238.742188 -28.316406 L -23.925781 582.066406 L 571.300781 838.210938 Z M 833.96875 227.828125 "/>
</clipPath>
<clipPath id="clip20">
  <path d="M 833.96875 227.828125 L 238.742188 -28.316406 L -23.882812 581.96875 L 571.34375 838.113281 Z M 833.96875 227.828125 "/>
</clipPath>
<clipPath id="clip21">
  <path d="M 161 89 L 561 89 L 561 249 L 161 249 Z M 161 89 "/>
</clipPath>
<clipPath id="clip22">
  <path d="M 238.742188 -28.316406 L 833.96875 227.828125 L 571.300781 838.210938 L -23.925781 582.066406 Z M 238.742188 -28.316406 "/>
</clipPath>
<clipPath id="clip23">
  <path d="M 833.96875 227.828125 L 238.742188 -28.316406 L -23.925781 582.066406 L 571.300781 838.210938 Z M 833.96875 227.828125 "/>
</clipPath>
<clipPath id="clip24">
  <path d="M 833.96875 227.828125 L 238.742188 -28.316406 L -23.882812 581.96875 L 571.34375 838.113281 Z M 833.96875 227.828125 "/>
</clipPath>
<clipPath id="clip25">
  <path d="M 89 399 L 704 399 L 704 641 L 89 641 Z M 89 399 "/>
</clipPath>
<clipPath id="clip26">
  <path d="M 238.742188 -28.316406 L 833.96875 227.828125 L 571.300781 838.210938 L -23.925781 582.066406 Z M 238.742188 -28.316406 "/>
</clipPath>
<clipPath id="clip27">
  <path d="M 833.96875 227.828125 L 238.742188 -28.316406 L -23.925781 582.066406 L 571.300781 838.210938 Z M 833.96875 227.828125 "/>
</clipPath>
<clipPath id="clip28">
  <path d="M 833.96875 227.828125 L 238.742188 -28.316406 L -23.882812 581.96875 L 571.34375 838.113281 Z M 833.96875 227.828125 "/>
</clipPath>
<clipPath id="clip29">
  <path d="M 85 395 L 708 395 L 708 645 L 85 645 Z M 85 395 "/>
</clipPath>
<clipPath id="clip30">
  <path d="M 238.742188 -28.316406 L 833.96875 227.828125 L 571.300781 838.210938 L -23.925781 582.066406 Z M 238.742188 -28.316406 "/>
</clipPath>
<clipPath id="clip31">
  <path d="M 833.96875 227.828125 L 238.742188 -28.316406 L -23.925781 582.066406 L 571.300781 838.210938 Z M 833.96875 227.828125 "/>
</clipPath>
<clipPath id="clip32">
  <path d="M 833.96875 227.828125 L 238.742188 -28.316406 L -23.882812 581.96875 L 571.34375 838.113281 Z M 833.96875 227.828125 "/>
</clipPath>
<clipPath id="clip33">
  <path d="M 173 179 L 526 179 L 526 239 L 173 239 Z M 173 179 "/>
</clipPath>
<clipPath id="clip34">
  <path d="M 238.742188 -28.316406 L 833.96875 227.828125 L 571.300781 838.210938 L -23.925781 582.066406 Z M 238.742188 -28.316406 "/>
</clipPath>
<clipPath id="clip35">
  <path d="M 833.96875 227.828125 L 238.742188 -28.316406 L -23.925781 582.066406 L 571.300781 838.210938 Z M 833.96875 227.828125 "/>
</clipPath>
<clipPath id="clip36">
  <path d="M 833.96875 227.828125 L 238.742188 -28.316406 L -23.882812 581.96875 L 571.34375 838.113281 Z M 833.96875 227.828125 "/>
</clipPath>
<clipPath id="clip37">
  <path d="M 165 161 L 550 161 L 550 247 L 165 247 Z M 165 161 "/>
</clipPath>
<clipPath id="clip38">
  <path d="M 238.742188 -28.316406 L 833.96875 227.828125 L 571.300781 838.210938 L -23.925781 582.066406 Z M 238.742188 -28.316406 "/>
</clipPath>
<clipPath id="clip39">
  <path d="M 833.96875 227.828125 L 238.742188 -28.316406 L -23.925781 582.066406 L 571.300781 838.210938 Z M 833.96875 227.828125 "/>
</clipPath>
<clipPath id="clip40">
  <path d="M 833.96875 227.828125 L 238.742188 -28.316406 L -23.882812 581.96875 L 571.34375 838.113281 Z M 833.96875 227.828125 "/>
</clipPath>
<clipPath id="clip41">
  <path d="M 169 150 L 551 150 L 551 241 L 169 241 Z M 169 150 "/>
</clipPath>
<clipPath id="clip42">
  <path d="M 238.742188 -28.316406 L 833.96875 227.828125 L 571.300781 838.210938 L -23.925781 582.066406 Z M 238.742188 -28.316406 "/>
</clipPath>
<clipPath id="clip43">
  <path d="M 833.96875 227.828125 L 238.742188 -28.316406 L -23.925781 582.066406 L 571.300781 838.210938 Z M 833.96875 227.828125 "/>
</clipPath>
<clipPath id="clip44">
  <path d="M 833.96875 227.828125 L 238.742188 -28.316406 L -23.882812 581.96875 L 571.34375 838.113281 Z M 833.96875 227.828125 "/>
</clipPath>
<clipPath id="clip45">
  <path d="M 244 402 L 541 402 L 541 548 L 244 548 Z M 244 402 "/>
</clipPath>
<clipPath id="clip46">
  <path d="M 238.742188 -28.316406 L 833.96875 227.828125 L 571.300781 838.210938 L -23.925781 582.066406 Z M 238.742188 -28.316406 "/>
</clipPath>
<clipPath id="clip47">
  <path d="M 833.96875 227.828125 L 238.742188 -28.316406 L -23.925781 582.066406 L 571.300781 838.210938 Z M 833.96875 227.828125 "/>
</clipPath>
<clipPath id="clip48">
  <path d="M 833.96875 227.828125 L 238.742188 -28.316406 L -23.882812 581.96875 L 571.34375 838.113281 Z M 833.96875 227.828125 "/>
</clipPath>
<clipPath id="clip49">
  <path d="M 240 398 L 545 398 L 545 552 L 240 552 Z M 240 398 "/>
</clipPath>
<clipPath id="clip50">
  <path d="M 238.742188 -28.316406 L 833.96875 227.828125 L 571.300781 838.210938 L -23.925781 582.066406 Z M 238.742188 -28.316406 "/>
</clipPath>
<clipPath id="clip51">
  <path d="M 833.96875 227.828125 L 238.742188 -28.316406 L -23.925781 582.066406 L 571.300781 838.210938 Z M 833.96875 227.828125 "/>
</clipPath>
<clipPath id="clip52">
  <path d="M 833.96875 227.828125 L 238.742188 -28.316406 L -23.882812 581.96875 L 571.34375 838.113281 Z M 833.96875 227.828125 "/>
</clipPath>
<clipPath id="clip53">
  <path d="M 381 442 L 480 442 L 480 551 L 381 551 Z M 381 442 "/>
</clipPath>
<clipPath id="clip54">
  <path d="M 238.742188 -28.316406 L 833.96875 227.828125 L 571.300781 838.210938 L -23.925781 582.066406 Z M 238.742188 -28.316406 "/>
</clipPath>
<clipPath id="clip55">
  <path d="M 833.96875 227.828125 L 238.742188 -28.316406 L -23.925781 582.066406 L 571.300781 838.210938 Z M 833.96875 227.828125 "/>
</clipPath>
<clipPath id="clip56">
  <path d="M 833.96875 227.828125 L 238.742188 -28.316406 L -23.882812 581.96875 L 571.34375 838.113281 Z M 833.96875 227.828125 "/>
</clipPath>
<clipPath id="clip57">
  <path d="M 377 438 L 484 438 L 484 555 L 377 555 Z M 377 438 "/>
</clipPath>
<clipPath id="clip58">
  <path d="M 238.742188 -28.316406 L 833.96875 227.828125 L 571.300781 838.210938 L -23.925781 582.066406 Z M 238.742188 -28.316406 "/>
</clipPath>
<clipPath id="clip59">
  <path d="M 833.96875 227.828125 L 238.742188 -28.316406 L -23.925781 582.066406 L 571.300781 838.210938 Z M 833.96875 227.828125 "/>
</clipPath>
<clipPath id="clip60">
  <path d="M 833.96875 227.828125 L 238.742188 -28.316406 L -23.882812 581.96875 L 571.34375 838.113281 Z M 833.96875 227.828125 "/>
</clipPath>
<clipPath id="clip61">
  <path d="M 427 478 L 480 478 L 480 501 L 427 501 Z M 427 478 "/>
</clipPath>
<clipPath id="clip62">
  <path d="M 238.742188 -28.316406 L 833.96875 227.828125 L 571.300781 838.210938 L -23.925781 582.066406 Z M 238.742188 -28.316406 "/>
</clipPath>
<clipPath id="clip63">
  <path d="M 833.96875 227.828125 L 238.742188 -28.316406 L -23.925781 582.066406 L 571.300781 838.210938 Z M 833.96875 227.828125 "/>
</clipPath>
<clipPath id="clip64">
  <path d="M 833.96875 227.828125 L 238.742188 -28.316406 L -23.882812 581.96875 L 571.34375 838.113281 Z M 833.96875 227.828125 "/>
</clipPath>
<clipPath id="clip65">
  <path d="M 423 474 L 484 474 L 484 505 L 423 505 Z M 423 474 "/>
</clipPath>
<clipPath id="clip66">
  <path d="M 238.742188 -28.316406 L 833.96875 227.828125 L 571.300781 838.210938 L -23.925781 582.066406 Z M 238.742188 -28.316406 "/>
</clipPath>
<clipPath id="clip67">
  <path d="M 833.96875 227.828125 L 238.742188 -28.316406 L -23.925781 582.066406 L 571.300781 838.210938 Z M 833.96875 227.828125 "/>
</clipPath>
<clipPath id="clip68">
  <path d="M 833.96875 227.828125 L 238.742188 -28.316406 L -23.882812 581.96875 L 571.34375 838.113281 Z M 833.96875 227.828125 "/>
</clipPath>
</defs>
<g id="surface1">
<g clip-path="url(#clip1)" clip-rule="nonzero">
<g clip-path="url(#clip2)" clip-rule="nonzero">
<g clip-path="url(#clip3)" clip-rule="nonzero">
<g clip-path="url(#clip4)" clip-rule="nonzero">
<path style=" stroke:none;fill-rule:nonzero;fill:rgb(6.269836%,22.349548%,10.5896%);fill-opacity:1;" d="M 703.867188 433.253906 C 712.859375 509.367188 628.660156 636.269531 419.941406 660.878906 C 215.964844 684.925781 99.757812 581.652344 90.761719 505.535156 C 81.757812 429.414062 229.984375 523.253906 399.296875 503.292969 C 568.597656 483.324219 694.882812 357.132812 703.867188 433.253906 "/>
</g>
</g>
</g>
</g>
<g clip-path="url(#clip5)" clip-rule="nonzero">
<g clip-path="url(#clip6)" clip-rule="nonzero">
<g clip-path="url(#clip7)" clip-rule="nonzero">
<g clip-path="url(#clip8)" clip-rule="nonzero">
<path style=" stroke:none;fill-rule:nonzero;fill:rgb(13.729858%,12.159729%,12.548828%);fill-opacity:1;" d="M 703.867188 433.253906 L 707.886719 432.777344 C 710.230469 452.671875 706.484375 475.546875 696.371094 499.070312 C 665.988281 569.636719 578.0625 646.316406 420.414062 664.898438 C 335.175781 674.949219 264.925781 662.941406 211.199219 639.820312 C 173.300781 623.507812 143.621094 601.679688 122.683594 578.140625 C 101.757812 554.59375 89.515625 529.332031 86.742188 506.007812 C 85.832031 498.273438 86.375 491.824219 88.664062 486.492188 C 90.007812 483.355469 91.980469 480.652344 94.457031 478.519531 C 96.769531 476.511719 99.503906 474.996094 102.519531 473.886719 C 108.183594 471.816406 114.855469 471.109375 122.511719 471.21875 C 135.90625 471.421875 152.4375 474.1875 171.679688 477.945312 C 200.535156 483.585938 235.441406 491.503906 274.097656 496.714844 C 312.746094 501.921875 355.121094 504.425781 398.816406 499.273438 C 469.179688 490.988281 532.296875 464.085938 582.628906 441.117188 C 607.8125 429.628906 629.777344 419.136719 648.046875 412.4375 C 657.199219 409.085938 665.421875 406.679688 672.785156 405.617188 C 676.46875 405.089844 679.941406 404.898438 683.222656 405.132812 C 686.5 405.371094 689.589844 406.042969 692.425781 407.261719 C 696.761719 409.105469 700.40625 412.308594 702.964844 416.621094 C 705.539062 420.941406 707.121094 426.296875 707.890625 432.78125 L 703.867188 433.253906 L 699.851562 433.726562 C 699.183594 428.015625 697.816406 423.773438 696.015625 420.769531 C 694.203125 417.769531 692.046875 415.929688 689.226562 414.695312 C 687.375 413.898438 685.195312 413.394531 682.640625 413.203125 C 677.863281 412.851562 671.800781 413.679688 664.699219 415.570312 C 652.265625 418.871094 636.707031 425.382812 618.6875 433.515625 C 591.628906 445.71875 558.96875 461.558594 522.058594 475.652344 C 485.140625 489.742188 443.957031 502.101562 399.769531 507.316406 C 322.4375 516.421875 249.738281 502.039062 194.359375 490.769531 C 180.515625 487.949219 167.761719 485.324219 156.316406 483.300781 C 139.15625 480.253906 124.898438 478.609375 114.625 479.5625 C 109.488281 480.03125 105.40625 481.132812 102.417969 482.792969 C 100.925781 483.628906 99.6875 484.582031 98.652344 485.710938 C 97.617188 486.835938 96.773438 488.125 96.097656 489.691406 C 94.574219 493.199219 93.960938 498.207031 94.78125 505.054688 C 97.269531 526.269531 108.65625 550.207031 128.730469 572.757812 C 148.792969 595.320312 177.503906 616.511719 214.398438 632.390625 C 266.710938 654.894531 335.484375 666.761719 419.460938 656.859375 C 574.902344 638.527344 659.96875 563.214844 688.933594 495.871094 C 698.59375 473.429688 702.003906 451.890625 699.851562 433.726562 L 703.867188 433.253906 "/>
</g>
</g>
</g>
</g>
<g clip-path="url(#clip9)" clip-rule="nonzero">
<g clip-path="url(#clip10)" clip-rule="nonzero">
<g clip-path="url(#clip11)" clip-rule="nonzero">
<g clip-path="url(#clip12)" clip-rule="nonzero">
<path style=" stroke:none;fill-rule:nonzero;fill:rgb(9.01947%,32.159424%,16.079712%);fill-opacity:1;" d="M 533.226562 465.730469 C 538.214844 499.246094 479.75 533.800781 404.90625 542.628906 C 330.042969 551.457031 266.859375 531.242188 262.183594 497.683594 C 246.53125 397.570312 182.40625 293.367188 166.25 196.585938 C 160.011719 168.429688 550.140625 116.5625 555.828125 146.265625 C 561.527344 175.976562 515.632812 347.492188 533.226562 465.730469 "/>
</g>
</g>
</g>
</g>
<g clip-path="url(#clip13)" clip-rule="nonzero">
<g clip-path="url(#clip14)" clip-rule="nonzero">
<g clip-path="url(#clip15)" clip-rule="nonzero">
<g clip-path="url(#clip16)" clip-rule="nonzero">
<path style=" stroke:none;fill-rule:nonzero;fill:rgb(13.729858%,12.159729%,12.548828%);fill-opacity:1;" d="M 533.226562 465.730469 L 537.226562 465.132812 C 538.160156 471.351562 537.15625 477.601562 534.597656 483.527344 C 531.273438 491.234375 525.410156 498.464844 517.617188 505.171875 C 505.90625 515.214844 489.777344 524.125 470.605469 531.289062 C 451.441406 538.441406 429.226562 543.832031 405.382812 546.644531 C 383.371094 549.238281 362.347656 549.363281 343.410156 547.382812 C 324.46875 545.394531 307.617188 541.324219 293.914062 535.433594 C 284.011719 531.164062 275.738281 525.953125 269.554688 519.753906 C 263.382812 513.570312 259.292969 506.289062 258.179688 498.238281 L 262.183594 497.683594 L 258.1875 498.304688 C 250.464844 448.867188 230.652344 398.015625 210.640625 347.367188 C 190.644531 296.710938 170.445312 246.261719 162.253906 197.246094 L 166.25 196.585938 L 162.296875 197.457031 C 161.9375 195.890625 162.179688 194.222656 162.765625 192.890625 C 163.464844 191.296875 164.523438 190.054688 165.761719 188.921875 C 168.179688 186.753906 171.421875 184.917969 175.554688 183.027344 C 183.285156 179.519531 194.160156 176.023438 207.523438 172.503906 C 230.878906 166.347656 261.773438 160.1875 295.59375 154.621094 C 346.316406 146.269531 403.578125 139.269531 451.523438 135.753906 C 475.5 133.992188 497.136719 133.105469 514.53125 133.371094 C 523.230469 133.503906 530.871094 133.921875 537.257812 134.679688 C 543.660156 135.445312 548.765625 136.5 552.679688 138.171875 C 554.355469 138.890625 555.828125 139.734375 557.101562 140.894531 C 557.738281 141.472656 558.320312 142.140625 558.789062 142.914062 C 559.261719 143.6875 559.625 144.574219 559.800781 145.511719 L 559.796875 145.5 C 560.230469 147.78125 560.382812 150.398438 560.363281 153.480469 C 560.324219 159.238281 559.660156 166.585938 558.582031 175.375 C 556.695312 190.757812 553.519531 210.511719 550.046875 233.046875 C 544.832031 266.84375 538.933594 306.890625 535.691406 347.488281 C 532.453125 388.085938 531.882812 429.242188 537.226562 465.132812 L 533.226562 465.730469 L 529.226562 466.320312 C 524.769531 436.367188 524.347656 403.242188 526.09375 369.894531 C 528.71875 319.882812 536.230469 269.371094 542.539062 228.605469 C 545.695312 208.230469 548.542969 190.289062 550.332031 176.140625 C 551.226562 169.066406 551.851562 162.941406 552.121094 157.980469 C 552.398438 153.03125 552.28125 149.195312 551.851562 147.03125 L 551.851562 147.023438 L 552.335938 146.929688 L 551.878906 147.109375 L 551.851562 147.023438 L 552.335938 146.929688 L 551.878906 147.109375 L 552.011719 147.058594 L 551.882812 147.132812 L 551.878906 147.109375 L 552.011719 147.058594 L 551.882812 147.132812 C 551.875 147.117188 551.742188 146.914062 551.351562 146.621094 C 550.960938 146.332031 550.332031 145.964844 549.484375 145.605469 C 547.292969 144.648438 543.703125 143.742188 539.082031 143.078125 C 530.402344 141.8125 518.097656 141.285156 503.347656 141.441406 C 477.519531 141.710938 444.132812 144.03125 408.503906 147.707031 C 355.050781 153.214844 296.503906 161.785156 250.566406 171.007812 C 227.601562 175.613281 207.765625 180.398438 193.398438 184.992188 C 186.222656 187.285156 180.402344 189.546875 176.355469 191.625 C 174.335938 192.652344 172.761719 193.640625 171.71875 194.480469 C 170.671875 195.300781 170.226562 195.984375 170.199219 196.089844 L 170.195312 196.101562 L 169.742188 195.941406 L 170.214844 195.980469 L 170.195312 196.101562 L 169.742188 195.941406 L 170.214844 195.980469 L 169.300781 195.910156 L 170.195312 195.714844 L 170.214844 195.980469 L 169.300781 195.910156 L 170.195312 195.714844 L 170.238281 195.921875 C 178.203125 243.6875 198.152344 293.734375 218.167969 344.398438 C 238.175781 395.074219 258.253906 446.382812 266.183594 497.058594 L 266.191406 497.125 C 267.039062 503.152344 270.0625 508.78125 275.289062 514.039062 C 280.5 519.285156 287.914062 524.042969 297.113281 528 C 309.84375 533.480469 325.964844 537.421875 344.25 539.332031 C 362.539062 541.25 382.988281 541.136719 404.433594 538.605469 C 435.40625 534.960938 463.515625 526.828125 485.171875 516.285156 C 496 511.023438 505.210938 505.15625 512.339844 499.03125 C 519.480469 492.902344 524.507812 486.519531 527.164062 480.328125 C 529.214844 475.546875 529.902344 470.925781 529.226562 466.320312 L 533.226562 465.730469 "/>
</g>
</g>
</g>
</g>
<g clip-path="url(#clip17)" clip-rule="nonzero">
<g clip-path="url(#clip18)" clip-rule="nonzero">
<g clip-path="url(#clip19)" clip-rule="nonzero">
<g clip-path="url(#clip20)" clip-rule="nonzero">
<path style=" stroke:none;fill-rule:nonzero;fill:rgb(10.978699%,39.219666%,20.388794%);fill-opacity:1;" d="M 555.828125 146.265625 C 560.535156 186.070312 477.019531 228.617188 369.296875 241.324219 C 261.578125 254.015625 170.445312 232.058594 165.734375 192.261719 C 161.027344 152.460938 244.542969 109.90625 352.277344 97.214844 C 459.984375 84.511719 551.128906 106.472656 555.828125 146.265625 "/>
</g>
</g>
</g>
</g>
<g clip-path="url(#clip21)" clip-rule="nonzero">
<g clip-path="url(#clip22)" clip-rule="nonzero">
<g clip-path="url(#clip23)" clip-rule="nonzero">
<g clip-path="url(#clip24)" clip-rule="nonzero">
<path style=" stroke:none;fill-rule:nonzero;fill:rgb(13.729858%,12.159729%,12.548828%);fill-opacity:1;" d="M 555.828125 146.265625 L 559.84375 145.789062 C 560.554688 151.753906 559.511719 157.746094 557.035156 163.492188 C 552.878906 173.101562 544.875 182.125 533.898438 190.617188 C 517.421875 203.332031 494.105469 214.859375 466.042969 224.335938 C 437.980469 233.800781 405.167969 241.164062 369.769531 245.339844 C 334.96875 249.441406 301.882812 249.957031 272.742188 247.429688 C 243.601562 244.894531 218.421875 239.34375 199.335938 231.136719 C 188.660156 226.539062 179.871094 221.109375 173.367188 214.742188 C 170.128906 211.550781 167.460938 208.125 165.476562 204.441406 C 163.492188 200.765625 162.199219 196.832031 161.71875 192.734375 C 161.011719 186.773438 162.050781 180.78125 164.53125 175.035156 C 168.683594 165.425781 176.691406 156.402344 187.664062 147.910156 C 204.144531 135.195312 227.457031 123.667969 255.523438 114.199219 C 283.59375 104.738281 316.398438 97.371094 351.796875 93.195312 C 386.597656 89.09375 419.6875 88.574219 448.824219 91.097656 C 477.96875 93.632812 503.144531 99.183594 522.234375 107.390625 C 532.90625 111.992188 541.703125 117.421875 548.199219 123.789062 C 551.441406 126.972656 554.109375 130.40625 556.089844 134.085938 C 558.074219 137.761719 559.363281 141.695312 559.84375 145.789062 L 555.828125 146.265625 L 551.804688 146.734375 C 551.445312 143.695312 550.503906 140.785156 548.96875 137.921875 C 546.660156 133.640625 542.976562 129.480469 537.941406 125.582031 C 532.914062 121.683594 526.550781 118.058594 519.035156 114.824219 C 501.109375 107.101562 476.640625 101.632812 448.128906 99.160156 C 419.609375 96.6875 387.03125 97.1875 352.746094 101.238281 C 306.253906 106.707031 264.316406 117.804688 232.355469 131.742188 C 216.375 138.703125 202.890625 146.375 192.609375 154.320312 C 182.320312 162.25 175.292969 170.464844 171.964844 178.234375 C 169.964844 182.898438 169.238281 187.371094 169.761719 191.785156 C 170.121094 194.824219 171.058594 197.738281 172.601562 200.605469 C 174.910156 204.886719 178.59375 209.046875 183.625 212.945312 C 188.652344 216.84375 195.015625 220.472656 202.535156 223.707031 C 220.46875 231.429688 244.925781 236.898438 273.4375 239.367188 C 301.960938 241.839844 334.542969 241.347656 368.824219 237.304688 C 415.316406 231.824219 457.246094 220.722656 489.207031 206.789062 C 505.191406 199.832031 518.671875 192.15625 528.953125 184.214844 C 539.242188 176.277344 546.265625 168.066406 549.597656 160.292969 C 551.597656 155.628906 552.324219 151.15625 551.808594 146.742188 L 555.828125 146.265625 "/>
</g>
</g>
</g>
</g>
<g clip-path="url(#clip25)" clip-rule="nonzero">
<g clip-path="url(#clip26)" clip-rule="nonzero">
<g clip-path="url(#clip27)" clip-rule="nonzero">
<g clip-path="url(#clip28)" clip-rule="nonzero">
<path style=" stroke:none;fill-rule:nonzero;fill:rgb(10.978699%,39.219666%,20.388794%);fill-opacity:1;" d="M 703.015625 426.078125 C 712.015625 502.195312 625.78125 611.890625 417.0625 636.503906 C 213.085938 660.550781 98.90625 574.480469 89.902344 498.359375 C 80.914062 422.246094 227.105469 498.878906 396.40625 478.914062 C 565.714844 458.957031 694.019531 349.960938 703.015625 426.078125 "/>
</g>
</g>
</g>
</g>
<g clip-path="url(#clip29)" clip-rule="nonzero">
<g clip-path="url(#clip30)" clip-rule="nonzero">
<g clip-path="url(#clip31)" clip-rule="nonzero">
<g clip-path="url(#clip32)" clip-rule="nonzero">
<path style=" stroke:none;fill-rule:nonzero;fill:rgb(13.729858%,12.159729%,12.548828%);fill-opacity:1;" d="M 703.015625 426.078125 L 707.035156 425.605469 C 709.222656 444.089844 706.019531 464.292969 697.242188 484.671875 C 682.742188 518.351562 653.066406 552.550781 606.925781 580.714844 C 560.769531 608.882812 498.140625 631.019531 417.535156 640.519531 C 324.203125 651.523438 249.3125 639.652344 194.367188 616.007812 C 161.421875 601.828125 135.640625 583.417969 117.40625 563.109375 C 99.171875 542.808594 88.464844 520.582031 85.886719 498.832031 C 84.933594 490.773438 85.570312 483.957031 88.007812 478.273438 C 89.371094 475.085938 91.320312 472.304688 93.75 469.996094 C 96.023438 467.835938 98.703125 466.09375 101.679688 464.710938 C 107.277344 462.128906 113.921875 460.777344 121.535156 460.1875 C 134.871094 459.167969 151.285156 460.5 170.367188 462.769531 C 198.976562 466.199219 233.550781 471.808594 271.90625 475.265625 C 310.257812 478.726562 352.367188 480.035156 395.929688 474.894531 C 465.414062 466.710938 528.148438 443.347656 578.589844 424.023438 C 603.828125 414.363281 625.972656 405.710938 644.535156 400.488281 C 653.824219 397.878906 662.21875 396.109375 669.75 395.550781 C 677.269531 395 683.992188 395.636719 689.777344 398.121094 C 694.582031 400.167969 698.644531 403.578125 701.53125 408.226562 C 704.429688 412.867188 706.210938 418.644531 707.035156 425.605469 L 698.996094 426.550781 C 698.273438 420.417969 696.742188 415.832031 694.667969 412.515625 C 692.574219 409.191406 689.992188 407.035156 686.578125 405.550781 C 682.488281 403.777344 677.066406 403.117188 670.347656 403.617188 C 658.59375 404.472656 643.132812 408.871094 624.855469 415.3125 C 597.417969 424.96875 563.578125 439.140625 525.054688 452.261719 C 486.523438 465.382812 443.273438 477.464844 396.878906 482.929688 C 320.03125 491.988281 248.128906 481.316406 193.359375 473.910156 C 166.003906 470.195312 142.882812 467.328125 125.925781 468.035156 C 117.449219 468.371094 110.566406 469.621094 105.546875 471.847656 C 103.03125 472.953125 100.984375 474.289062 99.332031 475.859375 C 97.683594 477.433594 96.40625 479.253906 95.441406 481.472656 C 93.742188 485.402344 93.078125 490.746094 93.921875 497.886719 C 96.257812 517.644531 106.089844 538.40625 123.421875 557.707031 C 140.75 577 165.546875 594.804688 197.5625 608.582031 C 250.957031 631.558594 324.421875 643.351562 416.585938 632.488281 C 496.222656 623.097656 557.730469 601.261719 602.703125 573.8125 C 647.691406 546.363281 676.128906 513.292969 689.816406 481.476562 C 698.097656 462.210938 700.996094 443.433594 699 426.554688 L 703.015625 426.078125 "/>
</g>
</g>
</g>
</g>
<g clip-path="url(#clip33)" clip-rule="nonzero">
<g clip-path="url(#clip34)" clip-rule="nonzero">
<g clip-path="url(#clip35)" clip-rule="nonzero">
<g clip-path="url(#clip36)" clip-rule="nonzero">
<path style=" stroke:none;fill-rule:nonzero;fill:rgb(20.388794%,48.239136%,20.388794%);fill-opacity:1;" d="M 204.984375 221.636719 C 222.328125 229.101562 245.992188 234.390625 273.574219 236.777344 C 301.1875 239.175781 332.734375 238.691406 365.933594 234.773438 C 410.941406 229.472656 451.539062 218.722656 482.476562 205.234375 C 497.941406 198.492188 510.984375 191.0625 520.925781 183.382812 C 522.648438 182.050781 524.285156 180.710938 525.808594 179.371094 C 525.273438 179.734375 524.734375 180.09375 524.183594 180.449219 C 507.5625 191.316406 485.707031 201.113281 460.167969 209.164062 C 434.628906 217.210938 405.402344 223.488281 374.082031 227.179688 L 373.605469 223.164062 L 374.082031 227.179688 C 340.367188 231.15625 308.3125 231.65625 280.082031 229.207031 C 251.847656 226.75 227.457031 221.375 208.957031 213.421875 C 198.601562 208.957031 190.070312 203.699219 183.765625 197.507812 C 180.613281 194.417969 178.023438 191.082031 176.097656 187.507812 C 175.199219 185.847656 174.449219 184.132812 173.855469 182.378906 C 173.140625 185.242188 172.949219 188.039062 173.273438 190.804688 C 173.621094 193.726562 174.523438 196.539062 176.007812 199.296875 C 178.230469 203.425781 181.789062 207.441406 186.652344 211.214844 C 191.507812 214.976562 197.65625 218.480469 204.921875 221.609375 C 204.929688 221.613281 204.933594 221.613281 204.941406 221.617188 C 204.957031 221.625 204.972656 221.632812 204.984375 221.636719 "/>
</g>
</g>
</g>
</g>
<g clip-path="url(#clip37)" clip-rule="nonzero">
<g clip-path="url(#clip38)" clip-rule="nonzero">
<g clip-path="url(#clip39)" clip-rule="nonzero">
<g clip-path="url(#clip40)" clip-rule="nonzero">
<path style=" stroke:none;fill-rule:nonzero;fill:rgb(13.729858%,12.159729%,12.548828%);fill-opacity:1;" d="M 201.742188 229.050781 C 220.25 237.007812 244.648438 242.378906 272.878906 244.839844 C 301.113281 247.285156 333.167969 246.785156 366.882812 242.808594 C 401.167969 238.769531 432.953125 231.628906 460.132812 222.460938 C 487.324219 213.28125 509.902344 202.113281 525.878906 189.785156 C 536.511719 181.554688 544.277344 172.800781 548.308594 163.46875 C 548.648438 162.675781 548.964844 161.878906 549.246094 161.078125 C 545.792969 168.621094 538.898438 176.539062 528.953125 184.214844 C 518.671875 192.15625 505.191406 199.832031 489.207031 206.789062 C 457.246094 220.722656 415.316406 231.824219 368.824219 237.304688 C 334.542969 241.347656 301.960938 241.839844 273.4375 239.367188 C 244.953125 236.902344 220.503906 231.4375 202.578125 223.726562 C 202.566406 223.71875 202.550781 223.710938 202.535156 223.707031 C 202.527344 223.703125 202.527344 223.703125 202.523438 223.699219 C 195.011719 220.46875 188.652344 216.84375 183.625 212.945312 C 178.59375 209.046875 174.910156 204.886719 172.601562 200.605469 C 171.058594 197.738281 170.121094 194.824219 169.761719 191.785156 C 169.238281 187.371094 169.964844 182.898438 171.964844 178.234375 C 173.742188 174.089844 176.558594 169.828125 180.371094 165.546875 C 179.949219 164.753906 179.265625 164.101562 178.386719 163.722656 C 178.386719 163.722656 178.382812 163.722656 178.382812 163.722656 C 176.640625 162.972656 174.632812 163.527344 173.519531 165.054688 C 171.246094 168.179688 169.378906 171.367188 167.976562 174.625 C 165.578125 180.179688 164.550781 185.972656 165.234375 191.75 C 165.703125 195.730469 166.957031 199.558594 168.882812 203.132812 C 170.8125 206.710938 173.402344 210.039062 176.554688 213.140625 C 182.867188 219.324219 191.394531 224.589844 201.742188 229.050781 "/>
</g>
</g>
</g>
</g>
<g clip-path="url(#clip41)" clip-rule="nonzero">
<g clip-path="url(#clip42)" clip-rule="nonzero">
<g clip-path="url(#clip43)" clip-rule="nonzero">
<g clip-path="url(#clip44)" clip-rule="nonzero">
<path style=" stroke:none;fill-rule:nonzero;fill:rgb(15.689087%,37.249756%,18.429565%);fill-opacity:1;" d="M 202.578125 223.726562 C 220.503906 231.4375 244.953125 236.902344 273.4375 239.367188 C 301.960938 241.839844 334.542969 241.347656 368.824219 237.304688 C 415.316406 231.824219 457.246094 220.722656 489.207031 206.789062 C 505.191406 199.832031 518.671875 192.15625 528.953125 184.214844 C 538.898438 176.539062 545.792969 168.621094 549.246094 161.078125 C 549.882812 159.292969 550.375 157.496094 550.710938 155.679688 C 551.054688 153.816406 550.074219 151.972656 548.332031 151.222656 C 546.597656 150.472656 544.578125 151.023438 543.464844 152.554688 C 538.328125 159.613281 530.265625 166.808594 519.753906 173.675781 C 509.242188 180.550781 496.292969 187.109375 481.425781 193.042969 C 451.675781 204.917969 414.25 214.296875 373.132812 219.148438 L 374.082031 227.179688 C 405.402344 223.488281 434.628906 217.210938 460.167969 209.164062 C 485.707031 201.113281 507.5625 191.316406 524.183594 180.449219 C 524.734375 180.09375 525.273438 179.734375 525.808594 179.371094 C 524.285156 180.710938 522.648438 182.050781 520.925781 183.382812 C 510.984375 191.0625 497.941406 198.492188 482.476562 205.234375 C 451.539062 218.722656 410.941406 229.472656 365.933594 234.773438 C 332.734375 238.691406 301.1875 239.175781 273.574219 236.777344 C 245.992188 234.390625 222.328125 229.101562 204.984375 221.636719 C 204.972656 221.632812 204.957031 221.625 204.941406 221.617188 C 204.933594 221.613281 204.929688 221.613281 204.921875 221.609375 C 197.65625 218.480469 191.507812 214.976562 186.652344 211.214844 C 181.789062 207.441406 178.230469 203.425781 176.007812 199.296875 C 174.523438 196.539062 173.621094 193.726562 173.273438 190.804688 C 172.949219 188.039062 173.140625 185.242188 173.855469 182.378906 C 174.449219 184.132812 175.199219 185.847656 176.097656 187.507812 C 178.023438 191.082031 180.613281 194.417969 183.765625 197.507812 C 190.070312 203.699219 198.601562 208.957031 208.957031 213.421875 C 227.457031 221.375 251.847656 226.75 280.082031 229.207031 C 308.3125 231.65625 340.367188 231.15625 374.082031 227.179688 L 373.132812 219.148438 C 339.933594 223.058594 308.390625 223.542969 280.785156 221.144531 C 253.199219 218.757812 229.539062 213.46875 212.195312 206.007812 C 212.183594 206 212.164062 205.992188 212.152344 205.988281 C 212.148438 205.984375 212.140625 205.984375 212.136719 205.980469 C 204.871094 202.855469 198.71875 199.347656 193.863281 195.585938 C 188.996094 191.8125 185.445312 187.796875 183.222656 183.667969 C 181.738281 180.910156 180.828125 178.097656 180.480469 175.175781 L 180.476562 175.167969 C 180.210938 172.910156 180.324219 170.59375 180.765625 168.167969 C 180.933594 167.242188 180.777344 166.328125 180.371094 165.546875 C 176.558594 169.828125 173.742188 174.089844 171.964844 178.234375 C 169.964844 182.898438 169.238281 187.371094 169.761719 191.785156 C 170.121094 194.824219 171.058594 197.738281 172.601562 200.605469 C 174.910156 204.886719 178.59375 209.046875 183.625 212.945312 C 188.652344 216.84375 195.011719 220.46875 202.523438 223.699219 C 202.527344 223.703125 202.527344 223.703125 202.535156 223.707031 C 202.550781 223.710938 202.566406 223.71875 202.578125 223.726562 "/>
</g>
</g>
</g>
</g>
<g clip-path="url(#clip45)" clip-rule="nonzero">
<g clip-path="url(#clip46)" clip-rule="nonzero">
<g clip-path="url(#clip47)" clip-rule="nonzero">
<g clip-path="url(#clip48)" clip-rule="nonzero">
<path style=" stroke:none;fill-rule:nonzero;fill:rgb(16.079712%,14.118958%,17.248535%);fill-opacity:1;" d="M 244.5625 446.328125 C 244.199219 453.273438 255.757812 497.644531 256.335938 502.617188 C 260.5 537.847656 326.855469 554.390625 405.207031 545.144531 C 483.554688 535.917969 544.226562 504.40625 540.0625 469.183594 C 538.984375 460.074219 539 415.246094 537.644531 411.777344 C 536.261719 408.300781 529.191406 402.753906 529.191406 402.753906 C 529.191406 402.753906 529.273438 413.835938 529.300781 416.109375 C 513.257812 427.0625 469.710938 453.945312 395.453125 462.699219 C 321.125 471.46875 269.914062 458.921875 251.597656 452.039062 C 250.742188 446.640625 246.195312 432.246094 246.195312 432.246094 C 246.195312 432.246094 244.933594 439.378906 244.5625 446.328125 "/>
</g>
</g>
</g>
</g>
<g clip-path="url(#clip49)" clip-rule="nonzero">
<g clip-path="url(#clip50)" clip-rule="nonzero">
<g clip-path="url(#clip51)" clip-rule="nonzero">
<g clip-path="url(#clip52)" clip-rule="nonzero">
<path style=" stroke:none;fill-rule:nonzero;fill:rgb(13.729858%,12.159729%,12.548828%);fill-opacity:1;" d="M 244.5625 446.328125 L 248.609375 446.539062 C 248.597656 446.644531 248.605469 447.089844 248.660156 447.683594 C 248.761719 448.808594 249.011719 450.511719 249.375 452.546875 C 250.644531 459.699219 253.257812 471.015625 255.609375 480.988281 C 256.777344 485.980469 257.886719 490.648438 258.734375 494.34375 C 259.164062 496.191406 259.523438 497.792969 259.792969 499.09375 C 259.9375 499.738281 260.050781 500.3125 260.144531 500.8125 C 260.238281 501.3125 260.304688 501.730469 260.359375 502.152344 L 260.355469 502.140625 C 261.070312 508.09375 263.777344 513.40625 268.503906 518.332031 C 273.234375 523.246094 280.019531 527.652344 288.535156 531.316406 C 301.722656 536.996094 319.015625 540.882812 338.878906 542.601562 C 358.742188 544.324219 381.175781 543.910156 404.734375 541.128906 C 437.585938 537.265625 467.277344 529.414062 490.050781 519.128906 C 501.433594 513.992188 511.082031 508.242188 518.527344 502.15625 C 525.980469 496.078125 531.1875 489.683594 533.902344 483.351562 C 535.863281 478.785156 536.582031 474.277344 536.042969 469.660156 L 536.039062 469.652344 C 535.882812 468.332031 535.769531 466.597656 535.664062 464.445312 C 535.289062 456.949219 535.074219 444.605469 534.800781 433.726562 C 534.660156 428.292969 534.503906 423.226562 534.320312 419.386719 C 534.226562 417.457031 534.125 415.84375 534.015625 414.675781 C 533.960938 414.097656 533.898438 413.628906 533.855469 413.328125 L 533.800781 413.042969 L 533.804688 413.039062 L 535.558594 412.589844 L 533.871094 413.25 L 533.804688 413.039062 L 535.558594 412.589844 L 533.871094 413.25 L 533.882812 413.269531 C 533.84375 413.132812 533.371094 412.335938 532.652344 411.515625 C 531.585938 410.257812 530.054688 408.808594 528.828125 407.722656 C 528.207031 407.179688 527.664062 406.726562 527.277344 406.410156 C 527.085938 406.25 526.9375 406.132812 526.835938 406.046875 L 526.722656 405.957031 L 526.691406 405.9375 L 529.191406 402.753906 L 533.238281 402.71875 C 533.238281 402.726562 533.257812 405.488281 533.285156 408.546875 C 533.308594 411.597656 533.335938 414.941406 533.347656 416.066406 C 533.363281 417.421875 532.699219 418.6875 531.582031 419.449219 C 523.417969 425.027344 508.238281 434.65625 485.757812 443.96875 C 463.265625 453.28125 433.441406 462.292969 395.921875 466.722656 C 358.429688 471.144531 326.726562 470.191406 302.042969 467.257812 C 277.347656 464.316406 259.71875 459.40625 250.175781 455.824219 C 248.8125 455.3125 247.835938 454.113281 247.609375 452.675781 C 247.4375 451.582031 247.011719 449.726562 246.476562 447.6875 C 245.683594 444.605469 244.640625 441.035156 243.800781 438.25 C 243.382812 436.851562 243.015625 435.65625 242.753906 434.804688 C 242.621094 434.378906 242.519531 434.042969 242.445312 433.8125 C 242.371094 433.582031 242.335938 433.460938 242.335938 433.460938 L 246.195312 432.246094 L 250.175781 432.949219 L 250.167969 433.015625 C 250.042969 433.738281 248.933594 440.328125 248.605469 446.546875 L 244.5625 446.328125 L 240.527344 446.109375 C 240.914062 438.839844 242.195312 431.628906 242.210938 431.542969 C 242.535156 429.703125 244.0625 428.328125 245.925781 428.207031 C 247.796875 428.085938 249.492188 429.246094 250.050781 431.03125 C 250.058594 431.046875 251.199219 434.664062 252.464844 438.992188 C 253.09375 441.148438 253.75 443.488281 254.3125 445.652344 C 254.875 447.832031 255.34375 449.796875 255.597656 451.40625 L 251.597656 452.039062 L 253.03125 448.25 C 261.796875 451.554688 278.929688 456.359375 302.996094 459.222656 C 327.074219 462.089844 358.140625 463.03125 394.972656 458.683594 C 431.714844 454.351562 460.800781 445.539062 482.65625 436.488281 C 504.519531 427.433594 519.140625 418.144531 527.015625 412.765625 L 529.300781 416.109375 L 525.253906 416.144531 C 525.230469 413.863281 525.140625 402.785156 525.140625 402.785156 C 525.128906 401.230469 526.011719 399.800781 527.402344 399.121094 C 528.796875 398.441406 530.46875 398.617188 531.691406 399.566406 C 531.746094 399.613281 533.582031 401.058594 535.667969 403.007812 C 536.710938 403.992188 537.816406 405.101562 538.824219 406.277344 C 539.824219 407.480469 540.746094 408.679688 541.402344 410.285156 L 541.410156 410.300781 C 541.582031 410.753906 541.65625 411.0625 541.722656 411.378906 C 541.847656 411.976562 541.925781 412.574219 542.007812 413.285156 C 542.148438 414.605469 542.261719 416.269531 542.367188 418.269531 C 542.730469 425.226562 542.949219 436.082031 543.1875 446.152344 C 543.304688 451.171875 543.425781 455.992188 543.574219 459.984375 C 543.644531 461.976562 543.722656 463.765625 543.8125 465.253906 C 543.894531 466.742188 543.992188 467.953125 544.082031 468.707031 C 544.808594 474.808594 543.796875 480.855469 541.339844 486.550781 C 537.917969 494.484375 531.800781 501.769531 523.648438 508.425781 C 511.414062 518.414062 494.515625 527.050781 474.371094 534.011719 C 454.234375 540.960938 430.84375 546.199219 405.679688 549.167969 C 381.625 552.003906 358.675781 552.445312 338.179688 550.664062 C 317.683594 548.875 299.636719 544.894531 285.335938 538.746094 C 276.109375 534.769531 268.410156 529.882812 262.679688 523.953125 C 256.957031 518.035156 253.238281 510.972656 252.316406 503.09375 L 252.316406 503.085938 C 252.308594 502.972656 252.238281 502.558594 252.136719 502.011719 C 251.730469 499.917969 250.761719 495.75 249.582031 490.707031 C 247.796875 483.125 245.488281 473.46875 243.652344 465.054688 C 242.734375 460.847656 241.933594 456.949219 241.367188 453.738281 C 241.085938 452.132812 240.863281 450.703125 240.714844 449.453125 C 240.566406 448.191406 240.472656 447.175781 240.527344 446.109375 L 244.5625 446.328125 "/>
</g>
</g>
</g>
</g>
<g clip-path="url(#clip53)" clip-rule="nonzero">
<g clip-path="url(#clip54)" clip-rule="nonzero">
<g clip-path="url(#clip55)" clip-rule="nonzero">
<g clip-path="url(#clip56)" clip-rule="nonzero">
<path style=" stroke:none;fill-rule:nonzero;fill:rgb(98.039246%,74.119568%,7.839966%);fill-opacity:1;" d="M 455.410156 470.71875 C 453.96875 462.53125 446.609375 456.96875 439 458.3125 L 408.796875 463.632812 C 401.1875 464.984375 396.179688 472.71875 397.640625 480.921875 L 404.894531 522.035156 C 406.347656 530.226562 413.691406 535.78125 421.3125 534.4375 L 451.507812 529.121094 C 459.132812 527.769531 464.136719 520.046875 462.675781 511.839844 Z M 468.71875 459.785156 L 478.925781 517.554688 C 480.957031 529.074219 473.28125 540.066406 461.753906 542.089844 L 416.144531 550.140625 C 404.617188 552.164062 393.625 544.484375 391.597656 532.972656 L 381.382812 475.191406 C 379.34375 463.671875 387.035156 452.699219 398.550781 450.664062 L 444.179688 442.621094 C 455.683594 440.578125 466.6875 448.273438 468.71875 459.785156 "/>
</g>
</g>
</g>
</g>
<g clip-path="url(#clip57)" clip-rule="nonzero">
<g clip-path="url(#clip58)" clip-rule="nonzero">
<g clip-path="url(#clip59)" clip-rule="nonzero">
<g clip-path="url(#clip60)" clip-rule="nonzero">
<path style=" stroke:none;fill-rule:nonzero;fill:rgb(13.729858%,12.159729%,12.548828%);fill-opacity:1;" d="M 455.410156 470.71875 L 451.425781 471.414062 C 450.722656 467.375 448.097656 464.269531 444.953125 462.925781 C 443.296875 462.21875 441.527344 461.980469 439.703125 462.296875 L 409.503906 467.621094 C 407.894531 467.90625 406.46875 468.59375 405.25 469.601562 C 404.03125 470.613281 403.035156 471.953125 402.367188 473.507812 C 401.515625 475.488281 401.199219 477.800781 401.625 480.214844 L 408.878906 521.332031 C 409.597656 525.378906 412.214844 528.480469 415.355469 529.824219 C 417.007812 530.535156 418.785156 530.777344 420.617188 530.457031 L 450.804688 525.136719 C 452.425781 524.847656 453.847656 524.160156 455.066406 523.152344 C 456.289062 522.140625 457.285156 520.800781 457.953125 519.246094 C 458.804688 517.265625 459.125 514.957031 458.695312 512.550781 L 458.691406 512.542969 L 451.425781 471.421875 L 455.410156 470.71875 L 459.394531 470.011719 L 466.660156 511.132812 L 466.660156 511.125 C 467.371094 515.101562 466.867188 519.027344 465.386719 522.445312 C 464.230469 525.132812 462.480469 527.519531 460.234375 529.378906 C 457.996094 531.238281 455.25 532.566406 452.210938 533.105469 L 422.019531 538.425781 C 418.585938 539.03125 415.167969 538.558594 412.15625 537.253906 C 406.441406 534.789062 402.101562 529.425781 400.910156 522.734375 L 393.65625 481.625 L 393.652344 481.628906 C 392.949219 477.652344 393.453125 473.726562 394.929688 470.308594 C 396.089844 467.621094 397.835938 465.234375 400.082031 463.378906 C 402.3125 461.519531 405.054688 460.1875 408.09375 459.648438 L 438.292969 454.324219 C 441.722656 453.714844 445.144531 454.199219 448.152344 455.492188 C 453.871094 457.960938 458.210938 463.332031 459.394531 470.019531 Z M 468.71875 459.785156 L 472.707031 459.082031 L 482.910156 516.855469 C 483.796875 521.867188 483.132812 526.839844 481.253906 531.199219 C 479.625 534.964844 477.109375 538.300781 473.898438 540.882812 C 470.699219 543.476562 466.789062 545.308594 462.457031 546.074219 L 416.847656 554.121094 C 411.828125 555.007812 406.859375 554.34375 402.496094 552.457031 C 398.726562 550.835938 395.398438 548.316406 392.804688 545.109375 C 390.21875 541.902344 388.378906 538 387.613281 533.671875 L 377.398438 475.894531 C 376.511719 470.882812 377.179688 465.917969 379.058594 461.558594 C 382.289062 454.03125 389.164062 448.214844 397.851562 446.679688 L 443.472656 438.632812 C 448.488281 437.742188 453.449219 438.414062 457.8125 440.289062 C 461.582031 441.914062 464.917969 444.433594 467.507812 447.640625 C 470.101562 450.851562 471.9375 454.75 472.707031 459.082031 L 468.71875 459.785156 L 464.734375 460.488281 C 464.210938 457.53125 462.972656 454.90625 461.210938 452.722656 C 459.457031 450.550781 457.175781 448.824219 454.613281 447.722656 C 451.644531 446.445312 448.308594 445.992188 444.882812 446.597656 L 399.253906 454.648438 C 393.347656 455.691406 388.707031 459.625 386.492188 464.757812 C 385.214844 467.722656 384.761719 471.058594 385.367188 474.492188 L 395.585938 532.265625 C 396.105469 535.230469 397.351562 537.851562 399.105469 540.03125 C 400.863281 542.203125 403.132812 543.921875 405.695312 545.023438 C 408.667969 546.304688 412.003906 546.757812 415.4375 546.148438 L 461.050781 538.105469 C 464.019531 537.578125 466.644531 536.339844 468.816406 534.585938 C 470.996094 532.832031 472.71875 530.558594 473.820312 528 C 475.089844 525.03125 475.542969 521.6875 474.941406 518.257812 L 464.734375 460.488281 L 468.71875 459.785156 "/>
</g>
</g>
</g>
</g>
<g clip-path="url(#clip61)" clip-rule="nonzero">
<g clip-path="url(#clip62)" clip-rule="nonzero">
<g clip-path="url(#clip63)" clip-rule="nonzero">
<g clip-path="url(#clip64)" clip-rule="nonzero">
<path style=" stroke:none;fill-rule:nonzero;fill:rgb(98.039246%,74.119568%,7.839966%);fill-opacity:1;" d="M 479.175781 484.726562 C 479.9375 489.066406 477.039062 493.199219 472.695312 493.980469 L 437.019531 500.269531 C 432.671875 501.035156 428.527344 498.136719 427.75 493.789062 C 426.988281 489.445312 429.894531 485.300781 434.230469 484.53125 L 469.90625 478.238281 C 474.257812 477.46875 478.398438 480.378906 479.175781 484.726562 "/>
</g>
</g>
</g>
</g>
<g clip-path="url(#clip65)" clip-rule="nonzero">
<g clip-path="url(#clip66)" clip-rule="nonzero">
<g clip-path="url(#clip67)" clip-rule="nonzero">
<g clip-path="url(#clip68)" clip-rule="nonzero">
<path style=" stroke:none;fill-rule:nonzero;fill:rgb(13.729858%,12.159729%,12.548828%);fill-opacity:1;" d="M 479.175781 484.726562 L 483.160156 484.023438 C 483.582031 486.40625 483.261719 488.78125 482.363281 490.851562 C 480.828125 494.4375 477.546875 497.214844 473.410156 497.964844 L 473.398438 497.964844 L 437.722656 504.253906 C 435.335938 504.679688 432.957031 504.359375 430.875 503.464844 C 427.285156 501.925781 424.507812 498.636719 423.765625 494.5 L 423.761719 494.484375 C 423.347656 492.101562 423.671875 489.730469 424.5625 487.65625 C 426.101562 484.066406 429.386719 481.28125 433.523438 480.550781 L 433.53125 480.546875 L 469.203125 474.253906 C 471.589844 473.828125 473.964844 474.148438 476.050781 475.046875 C 479.644531 476.585938 482.425781 479.875 483.15625 484.015625 L 483.160156 484.023438 L 479.175781 484.726562 L 475.195312 485.433594 C 474.945312 484.0625 474.039062 482.996094 472.851562 482.480469 C 472.167969 482.183594 471.414062 482.082031 470.617188 482.21875 L 434.933594 488.515625 L 434.941406 488.511719 C 433.582031 488.757812 432.519531 489.664062 432 490.855469 C 431.699219 491.546875 431.597656 492.296875 431.734375 493.097656 L 431.730469 493.074219 C 431.972656 494.453125 432.886719 495.511719 434.074219 496.03125 C 434.757812 496.324219 435.511719 496.429688 436.3125 496.285156 L 471.992188 489.996094 L 471.980469 489.996094 C 473.351562 489.753906 474.417969 488.84375 474.929688 487.652344 C 475.222656 486.96875 475.328125 486.214844 475.195312 485.421875 L 475.195312 485.433594 L 479.175781 484.726562 "/>
</g>
</g>
</g>
</g>
</g>
</svg>
