<?xml version="1.0" encoding="UTF-8"?>
<svg xmlns="http://www.w3.org/2000/svg" xmlns:xlink="http://www.w3.org/1999/xlink" width="810pt" height="809.999993pt" viewBox="0 0 810 809.999993" version="1.2">
<defs>
<clipPath id="clip1">
  <path d="M 102 383 L 710 383 L 710 670 L 102 670 Z M 102 383 "/>
</clipPath>
<clipPath id="clip2">
  <path d="M -6.160156 189.707031 L 609.816406 -11.480469 L 816.128906 620.179688 L 200.152344 821.371094 Z M -6.160156 189.707031 "/>
</clipPath>
<clipPath id="clip3">
  <path d="M -6.160156 189.707031 L 609.816406 -11.480469 L 816.128906 620.179688 L 200.152344 821.371094 Z M -6.160156 189.707031 "/>
</clipPath>
<clipPath id="clip4">
  <path d="M -6.160156 189.707031 L 609.816406 -11.480469 L 816.09375 620.082031 L 200.117188 821.269531 Z M -6.160156 189.707031 "/>
</clipPath>
<clipPath id="clip5">
  <path d="M 98 379 L 715 379 L 715 674 L 98 674 Z M 98 379 "/>
</clipPath>
<clipPath id="clip6">
  <path d="M -6.160156 189.707031 L 609.816406 -11.480469 L 816.128906 620.179688 L 200.152344 821.371094 Z M -6.160156 189.707031 "/>
</clipPath>
<clipPath id="clip7">
  <path d="M -6.160156 189.707031 L 609.816406 -11.480469 L 816.128906 620.179688 L 200.152344 821.371094 Z M -6.160156 189.707031 "/>
</clipPath>
<clipPath id="clip8">
  <path d="M -6.160156 189.707031 L 609.816406 -11.480469 L 816.09375 620.082031 L 200.117188 821.269531 Z M -6.160156 189.707031 "/>
</clipPath>
<clipPath id="clip9">
  <path d="M 271 127 L 662 127 L 662 549 L 271 549 Z M 271 127 "/>
</clipPath>
<clipPath id="clip10">
  <path d="M -6.160156 189.707031 L 609.816406 -11.480469 L 816.128906 620.179688 L 200.152344 821.371094 Z M -6.160156 189.707031 "/>
</clipPath>
<clipPath id="clip11">
  <path d="M -6.160156 189.707031 L 609.816406 -11.480469 L 816.128906 620.179688 L 200.152344 821.371094 Z M -6.160156 189.707031 "/>
</clipPath>
<clipPath id="clip12">
  <path d="M -6.160156 189.707031 L 609.816406 -11.480469 L 816.09375 620.082031 L 200.117188 821.269531 Z M -6.160156 189.707031 "/>
</clipPath>
<clipPath id="clip13">
  <path d="M 266 123 L 666 123 L 666 553 L 266 553 Z M 266 123 "/>
</clipPath>
<clipPath id="clip14">
  <path d="M -6.160156 189.707031 L 609.816406 -11.480469 L 816.128906 620.179688 L 200.152344 821.371094 Z M -6.160156 189.707031 "/>
</clipPath>
<clipPath id="clip15">
  <path d="M -6.160156 189.707031 L 609.816406 -11.480469 L 816.128906 620.179688 L 200.152344 821.371094 Z M -6.160156 189.707031 "/>
</clipPath>
<clipPath id="clip16">
  <path d="M -6.160156 189.707031 L 609.816406 -11.480469 L 816.09375 620.082031 L 200.117188 821.269531 Z M -6.160156 189.707031 "/>
</clipPath>
<clipPath id="clip17">
  <path d="M 277 92 L 664 92 L 664 257 L 277 257 Z M 277 92 "/>
</clipPath>
<clipPath id="clip18">
  <path d="M -6.160156 189.707031 L 609.816406 -11.480469 L 816.128906 620.179688 L 200.152344 821.371094 Z M -6.160156 189.707031 "/>
</clipPath>
<clipPath id="clip19">
  <path d="M -6.160156 189.707031 L 609.816406 -11.480469 L 816.128906 620.179688 L 200.152344 821.371094 Z M -6.160156 189.707031 "/>
</clipPath>
<clipPath id="clip20">
  <path d="M -6.160156 189.707031 L 609.816406 -11.480469 L 816.09375 620.082031 L 200.117188 821.269531 Z M -6.160156 189.707031 "/>
</clipPath>
<clipPath id="clip21">
  <path d="M 273 88 L 668 88 L 668 261 L 273 261 Z M 273 88 "/>
</clipPath>
<clipPath id="clip22">
  <path d="M -6.160156 189.707031 L 609.816406 -11.480469 L 816.128906 620.179688 L 200.152344 821.371094 Z M -6.160156 189.707031 "/>
</clipPath>
<clipPath id="clip23">
  <path d="M -6.160156 189.707031 L 609.816406 -11.480469 L 816.128906 620.179688 L 200.152344 821.371094 Z M -6.160156 189.707031 "/>
</clipPath>
<clipPath id="clip24">
  <path d="M -6.160156 189.707031 L 609.816406 -11.480469 L 816.09375 620.082031 L 200.117188 821.269531 Z M -6.160156 189.707031 "/>
</clipPath>
<clipPath id="clip25">
  <path d="M 104 374 L 712 374 L 712 647 L 104 647 Z M 104 374 "/>
</clipPath>
<clipPath id="clip26">
  <path d="M -6.160156 189.707031 L 609.816406 -11.480469 L 816.128906 620.179688 L 200.152344 821.371094 Z M -6.160156 189.707031 "/>
</clipPath>
<clipPath id="clip27">
  <path d="M -6.160156 189.707031 L 609.816406 -11.480469 L 816.128906 620.179688 L 200.152344 821.371094 Z M -6.160156 189.707031 "/>
</clipPath>
<clipPath id="clip28">
  <path d="M -6.160156 189.707031 L 609.816406 -11.480469 L 816.09375 620.082031 L 200.117188 821.269531 Z M -6.160156 189.707031 "/>
</clipPath>
<clipPath id="clip29">
  <path d="M 100 370 L 716 370 L 716 651 L 100 651 Z M 100 370 "/>
</clipPath>
<clipPath id="clip30">
  <path d="M -6.160156 189.707031 L 609.816406 -11.480469 L 816.128906 620.179688 L 200.152344 821.371094 Z M -6.160156 189.707031 "/>
</clipPath>
<clipPath id="clip31">
  <path d="M -6.160156 189.707031 L 609.816406 -11.480469 L 816.128906 620.179688 L 200.152344 821.371094 Z M -6.160156 189.707031 "/>
</clipPath>
<clipPath id="clip32">
  <path d="M -6.160156 189.707031 L 609.816406 -11.480469 L 816.09375 620.082031 L 200.117188 821.269531 Z M -6.160156 189.707031 "/>
</clipPath>
<clipPath id="clip33">
  <path d="M 305 169 L 656 169 L 656 250 L 305 250 Z M 305 169 "/>
</clipPath>
<clipPath id="clip34">
  <path d="M -6.160156 189.707031 L 609.816406 -11.480469 L 816.128906 620.179688 L 200.152344 821.371094 Z M -6.160156 189.707031 "/>
</clipPath>
<clipPath id="clip35">
  <path d="M -6.160156 189.707031 L 609.816406 -11.480469 L 816.128906 620.179688 L 200.152344 821.371094 Z M -6.160156 189.707031 "/>
</clipPath>
<clipPath id="clip36">
  <path d="M -6.160156 189.707031 L 609.816406 -11.480469 L 816.09375 620.082031 L 200.117188 821.269531 Z M -6.160156 189.707031 "/>
</clipPath>
<clipPath id="clip37">
  <path d="M 283 149 L 664 149 L 664 258 L 283 258 Z M 283 149 "/>
</clipPath>
<clipPath id="clip38">
  <path d="M -6.160156 189.707031 L 609.816406 -11.480469 L 816.128906 620.179688 L 200.152344 821.371094 Z M -6.160156 189.707031 "/>
</clipPath>
<clipPath id="clip39">
  <path d="M -6.160156 189.707031 L 609.816406 -11.480469 L 816.128906 620.179688 L 200.152344 821.371094 Z M -6.160156 189.707031 "/>
</clipPath>
<clipPath id="clip40">
  <path d="M -6.160156 189.707031 L 609.816406 -11.480469 L 816.09375 620.082031 L 200.117188 821.269531 Z M -6.160156 189.707031 "/>
</clipPath>
<clipPath id="clip41">
  <path d="M 282 139 L 660 139 L 660 252 L 282 252 Z M 282 139 "/>
</clipPath>
<clipPath id="clip42">
  <path d="M -6.160156 189.707031 L 609.816406 -11.480469 L 816.128906 620.179688 L 200.152344 821.371094 Z M -6.160156 189.707031 "/>
</clipPath>
<clipPath id="clip43">
  <path d="M -6.160156 189.707031 L 609.816406 -11.480469 L 816.128906 620.179688 L 200.152344 821.371094 Z M -6.160156 189.707031 "/>
</clipPath>
<clipPath id="clip44">
  <path d="M -6.160156 189.707031 L 609.816406 -11.480469 L 816.09375 620.082031 L 200.117188 821.269531 Z M -6.160156 189.707031 "/>
</clipPath>
<clipPath id="clip45">
  <path d="M 264 391 L 562 391 L 562 553 L 264 553 Z M 264 391 "/>
</clipPath>
<clipPath id="clip46">
  <path d="M -6.160156 189.707031 L 609.816406 -11.480469 L 816.128906 620.179688 L 200.152344 821.371094 Z M -6.160156 189.707031 "/>
</clipPath>
<clipPath id="clip47">
  <path d="M -6.160156 189.707031 L 609.816406 -11.480469 L 816.128906 620.179688 L 200.152344 821.371094 Z M -6.160156 189.707031 "/>
</clipPath>
<clipPath id="clip48">
  <path d="M -6.160156 189.707031 L 609.816406 -11.480469 L 816.09375 620.082031 L 200.117188 821.269531 Z M -6.160156 189.707031 "/>
</clipPath>
<clipPath id="clip49">
  <path d="M 260 387 L 566 387 L 566 557 L 260 557 Z M 260 387 "/>
</clipPath>
<clipPath id="clip50">
  <path d="M -6.160156 189.707031 L 609.816406 -11.480469 L 816.128906 620.179688 L 200.152344 821.371094 Z M -6.160156 189.707031 "/>
</clipPath>
<clipPath id="clip51">
  <path d="M -6.160156 189.707031 L 609.816406 -11.480469 L 816.128906 620.179688 L 200.152344 821.371094 Z M -6.160156 189.707031 "/>
</clipPath>
<clipPath id="clip52">
  <path d="M -6.160156 189.707031 L 609.816406 -11.480469 L 816.09375 620.082031 L 200.117188 821.269531 Z M -6.160156 189.707031 "/>
</clipPath>
<clipPath id="clip53">
  <path d="M 320 438 L 423 438 L 423 550 L 320 550 Z M 320 438 "/>
</clipPath>
<clipPath id="clip54">
  <path d="M -6.160156 189.707031 L 609.816406 -11.480469 L 816.128906 620.179688 L 200.152344 821.371094 Z M -6.160156 189.707031 "/>
</clipPath>
<clipPath id="clip55">
  <path d="M -6.160156 189.707031 L 609.816406 -11.480469 L 816.128906 620.179688 L 200.152344 821.371094 Z M -6.160156 189.707031 "/>
</clipPath>
<clipPath id="clip56">
  <path d="M -6.160156 189.707031 L 609.816406 -11.480469 L 816.09375 620.082031 L 200.117188 821.269531 Z M -6.160156 189.707031 "/>
</clipPath>
<clipPath id="clip57">
  <path d="M 316 434 L 427 434 L 427 554 L 316 554 Z M 316 434 "/>
</clipPath>
<clipPath id="clip58">
  <path d="M -6.160156 189.707031 L 609.816406 -11.480469 L 816.128906 620.179688 L 200.152344 821.371094 Z M -6.160156 189.707031 "/>
</clipPath>
<clipPath id="clip59">
  <path d="M -6.160156 189.707031 L 609.816406 -11.480469 L 816.128906 620.179688 L 200.152344 821.371094 Z M -6.160156 189.707031 "/>
</clipPath>
<clipPath id="clip60">
  <path d="M -6.160156 189.707031 L 609.816406 -11.480469 L 816.09375 620.082031 L 200.117188 821.269531 Z M -6.160156 189.707031 "/>
</clipPath>
<clipPath id="clip61">
  <path d="M 323 471 L 375 471 L 375 498 L 323 498 Z M 323 471 "/>
</clipPath>
<clipPath id="clip62">
  <path d="M -6.160156 189.707031 L 609.816406 -11.480469 L 816.128906 620.179688 L 200.152344 821.371094 Z M -6.160156 189.707031 "/>
</clipPath>
<clipPath id="clip63">
  <path d="M -6.160156 189.707031 L 609.816406 -11.480469 L 816.128906 620.179688 L 200.152344 821.371094 Z M -6.160156 189.707031 "/>
</clipPath>
<clipPath id="clip64">
  <path d="M -6.160156 189.707031 L 609.816406 -11.480469 L 816.09375 620.082031 L 200.117188 821.269531 Z M -6.160156 189.707031 "/>
</clipPath>
<clipPath id="clip65">
  <path d="M 319 467 L 379 467 L 379 502 L 319 502 Z M 319 467 "/>
</clipPath>
<clipPath id="clip66">
  <path d="M -6.160156 189.707031 L 609.816406 -11.480469 L 816.128906 620.179688 L 200.152344 821.371094 Z M -6.160156 189.707031 "/>
</clipPath>
<clipPath id="clip67">
  <path d="M -6.160156 189.707031 L 609.816406 -11.480469 L 816.128906 620.179688 L 200.152344 821.371094 Z M -6.160156 189.707031 "/>
</clipPath>
<clipPath id="clip68">
  <path d="M -6.160156 189.707031 L 609.816406 -11.480469 L 816.09375 620.082031 L 200.117188 821.269531 Z M -6.160156 189.707031 "/>
</clipPath>
</defs>
<g id="surface1">
<g clip-path="url(#clip1)" clip-rule="nonzero">
<g clip-path="url(#clip2)" clip-rule="nonzero">
<g clip-path="url(#clip3)" clip-rule="nonzero">
<g clip-path="url(#clip4)" clip-rule="nonzero">
<path style=" stroke:none;fill-rule:nonzero;fill:rgb(6.269836%,22.349548%,10.5896%);fill-opacity:1;" d="M 104.800781 406.070312 C 88.953125 481.058594 161.3125 615.0625 366.949219 658.476562 C 567.90625 700.894531 692.992188 608.570312 708.84375 533.578125 C 724.703125 458.585938 568.585938 538.617188 401.777344 503.40625 C 234.980469 468.1875 120.644531 331.078125 104.800781 406.070312 "/>
</g>
</g>
</g>
</g>
<g clip-path="url(#clip5)" clip-rule="nonzero">
<g clip-path="url(#clip6)" clip-rule="nonzero">
<g clip-path="url(#clip7)" clip-rule="nonzero">
<g clip-path="url(#clip8)" clip-rule="nonzero">
<path style=" stroke:none;fill-rule:nonzero;fill:rgb(13.729858%,12.159729%,12.548828%);fill-opacity:1;" d="M 104.800781 406.070312 L 100.84375 405.234375 C 96.707031 424.832031 98.363281 447.953125 106.308594 472.296875 C 130.175781 545.328125 210.792969 629.652344 366.109375 662.433594 C 450.089844 680.164062 521.136719 674.566406 576.738281 656.40625 C 615.957031 643.589844 647.492188 624.539062 670.476562 602.996094 C 693.449219 581.441406 707.925781 557.394531 712.800781 534.414062 C 714.410156 526.792969 714.453125 520.324219 712.65625 514.804688 C 711.601562 511.558594 709.882812 508.6875 707.609375 506.339844 C 705.484375 504.132812 702.902344 502.375 700 500.996094 C 694.546875 498.421875 687.964844 497.113281 680.332031 496.527344 C 666.96875 495.519531 650.257812 496.773438 630.753906 498.773438 C 601.507812 501.777344 566.027344 506.503906 527.058594 508.191406 C 488.09375 509.878906 445.667969 508.535156 402.621094 499.445312 C 333.296875 484.820312 272.875 452.3125 224.828125 424.882812 C 200.789062 411.160156 179.863281 398.722656 162.277344 390.394531 C 153.464844 386.230469 145.496094 383.089844 138.257812 381.363281 C 134.640625 380.503906 131.195312 380 127.910156 379.9375 C 124.625 379.878906 121.484375 380.265625 118.550781 381.222656 C 114.066406 382.667969 110.144531 385.527344 107.207031 389.589844 C 104.253906 393.660156 102.1875 398.851562 100.835938 405.238281 L 104.800781 406.070312 L 108.757812 406.90625 C 109.941406 401.28125 111.6875 397.175781 113.75 394.347656 C 115.828125 391.527344 118.140625 389.890625 121.0625 388.914062 C 122.980469 388.289062 125.195312 387.984375 127.757812 388.027344 C 132.546875 388.109375 138.507812 389.480469 145.410156 392.007812 C 157.492188 396.421875 172.398438 404.3125 189.605469 414.046875 C 215.449219 428.648438 246.539062 447.382812 282.023438 464.761719 C 317.515625 482.136719 357.410156 498.171875 400.945312 507.367188 C 477.132812 523.441406 550.835938 515.699219 607.007812 509.492188 C 621.050781 507.9375 633.988281 506.476562 645.570312 505.5 C 662.933594 504.019531 677.285156 503.675781 687.429688 505.554688 C 692.503906 506.484375 696.46875 507.949219 699.292969 509.871094 C 700.707031 510.839844 701.851562 511.902344 702.78125 513.121094 C 703.710938 514.335938 704.433594 515.695312 704.960938 517.316406 C 706.164062 520.949219 706.320312 525.992188 704.882812 532.738281 C 700.480469 553.640625 686.976562 576.445312 664.941406 597.089844 C 642.917969 617.742188 612.40625 636.246094 574.226562 648.714844 C 520.089844 666.390625 450.527344 671.980469 367.789062 654.515625 C 214.648438 622.179688 136.75 539.472656 114.003906 469.785156 C 106.417969 446.558594 104.972656 424.800781 108.757812 406.90625 L 104.800781 406.070312 "/>
</g>
</g>
</g>
</g>
<g clip-path="url(#clip9)" clip-rule="nonzero">
<g clip-path="url(#clip10)" clip-rule="nonzero">
<g clip-path="url(#clip11)" clip-rule="nonzero">
<g clip-path="url(#clip12)" clip-rule="nonzero">
<path style=" stroke:none;fill-rule:nonzero;fill:rgb(9.01947%,32.159424%,16.079712%);fill-opacity:1;" d="M 271.800781 453.867188 C 263.796875 486.792969 318.894531 526.5 392.628906 542.070312 C 466.382812 557.640625 531.140625 543.234375 538.835938 510.238281 C 563.488281 411.953125 636.789062 313.984375 661.640625 219.0625 C 670.402344 191.589844 286.578125 104.605469 278.222656 133.667969 C 269.855469 162.742188 300.03125 337.710938 271.800781 453.867188 "/>
</g>
</g>
</g>
</g>
<g clip-path="url(#clip13)" clip-rule="nonzero">
<g clip-path="url(#clip14)" clip-rule="nonzero">
<g clip-path="url(#clip15)" clip-rule="nonzero">
<g clip-path="url(#clip16)" clip-rule="nonzero">
<path style=" stroke:none;fill-rule:nonzero;fill:rgb(13.729858%,12.159729%,12.548828%);fill-opacity:1;" d="M 271.800781 453.867188 L 267.871094 452.910156 C 266.378906 459.019531 266.8125 465.332031 268.820312 471.46875 C 271.433594 479.445312 276.621094 487.175781 283.773438 494.558594 C 294.527344 505.625 309.78125 515.957031 328.226562 524.828125 C 346.664062 533.6875 368.300781 541.066406 391.792969 546.027344 C 413.476562 550.605469 434.402344 552.632812 453.441406 552.375 C 472.488281 552.109375 489.636719 549.582031 503.816406 544.957031 C 514.0625 541.605469 522.777344 537.160156 529.5 531.546875 C 536.203125 525.945312 540.933594 519.070312 542.773438 511.152344 L 538.835938 510.238281 L 542.761719 511.21875 C 554.925781 462.679688 579.265625 413.835938 603.777344 365.203125 C 628.277344 316.570312 652.964844 268.15625 665.5625 220.082031 L 661.640625 219.0625 L 665.503906 220.289062 C 666 218.761719 665.910156 217.078125 665.445312 215.699219 C 664.894531 214.050781 663.953125 212.714844 662.824219 211.476562 C 660.609375 209.097656 657.546875 206.972656 653.605469 204.71875 C 646.222656 200.523438 635.710938 196.058594 622.722656 191.34375 C 600.019531 183.097656 569.808594 174.164062 536.628906 165.558594 C 486.871094 152.648438 430.480469 140.488281 383.050781 132.644531 C 359.332031 128.722656 337.863281 125.878906 320.519531 124.570312 C 311.839844 123.910156 304.195312 123.636719 297.765625 123.8125 C 291.320312 123.996094 286.136719 124.585938 282.089844 125.894531 C 280.359375 126.460938 278.8125 127.164062 277.441406 128.203125 C 276.753906 128.722656 276.113281 129.335938 275.574219 130.0625 C 275.035156 130.792969 274.59375 131.640625 274.332031 132.558594 L 274.335938 132.550781 C 273.703125 134.777344 273.3125 137.375 273.050781 140.445312 C 272.570312 146.179688 272.566406 153.558594 272.84375 162.410156 C 273.332031 177.898438 274.703125 197.859375 276.121094 220.617188 C 278.253906 254.746094 280.5 295.164062 280.050781 335.890625 C 279.601562 376.613281 276.441406 417.652344 267.871094 452.910156 L 271.800781 453.867188 L 275.730469 454.820312 C 282.882812 425.390625 286.300781 392.441406 287.582031 359.070312 C 289.5 309.03125 286.589844 258.042969 284 216.875 C 282.699219 196.296875 281.488281 178.171875 280.992188 163.917969 C 280.738281 156.792969 280.671875 150.636719 280.851562 145.671875 C 281.023438 140.71875 281.488281 136.910156 282.113281 134.789062 L 282.113281 134.785156 L 281.640625 134.644531 L 282.078125 134.867188 L 282.113281 134.785156 L 281.640625 134.644531 L 282.078125 134.867188 L 281.953125 134.804688 L 282.074219 134.890625 L 282.078125 134.867188 L 281.953125 134.804688 L 282.074219 134.890625 C 282.082031 134.875 282.234375 134.6875 282.648438 134.429688 C 283.0625 134.175781 283.722656 133.867188 284.601562 133.585938 C 286.871094 132.832031 290.527344 132.257812 295.1875 132.011719 C 303.949219 131.535156 316.246094 132.128906 330.925781 133.617188 C 356.621094 136.226562 389.660156 141.558594 424.8125 148.445312 C 477.542969 158.773438 535.074219 172.609375 579.992188 185.953125 C 602.441406 192.621094 621.761719 199.183594 635.65625 205.058594 C 642.59375 207.992188 648.183594 210.769531 652.027344 213.207031 C 653.945312 214.414062 655.421875 215.539062 656.386719 216.46875 C 657.355469 217.382812 657.738281 218.101562 657.753906 218.210938 L 657.757812 218.222656 L 658.222656 218.105469 L 657.75 218.097656 L 657.757812 218.222656 L 658.222656 218.105469 L 657.75 218.097656 L 658.664062 218.113281 L 657.789062 217.839844 L 657.75 218.097656 L 658.664062 218.113281 L 657.789062 217.839844 L 657.730469 218.039062 C 645.472656 264.890625 621.074219 312.921875 596.550781 361.566406 C 572.039062 410.222656 547.394531 459.5 534.90625 509.253906 L 534.894531 509.316406 C 533.503906 515.242188 529.984375 520.578125 524.304688 525.339844 C 518.636719 530.089844 510.824219 534.15625 501.304688 537.265625 C 488.128906 541.570312 471.71875 544.035156 453.332031 544.28125 C 434.949219 544.535156 414.589844 542.570312 393.460938 538.109375 C 362.949219 531.675781 335.691406 521.027344 315.078125 508.566406 C 304.769531 502.34375 296.132812 495.671875 289.582031 488.925781 C 283.027344 482.175781 278.601562 475.363281 276.515625 468.953125 C 274.90625 464.007812 274.640625 459.34375 275.730469 454.820312 L 271.800781 453.867188 "/>
</g>
</g>
</g>
</g>
<g clip-path="url(#clip17)" clip-rule="nonzero">
<g clip-path="url(#clip18)" clip-rule="nonzero">
<g clip-path="url(#clip19)" clip-rule="nonzero">
<g clip-path="url(#clip20)" clip-rule="nonzero">
<path style=" stroke:none;fill-rule:nonzero;fill:rgb(10.978699%,39.219666%,20.388794%);fill-opacity:1;" d="M 278.222656 133.667969 C 269.929688 172.886719 349.25 222.820312 455.378906 245.226562 C 561.503906 267.625 654.25 254.007812 662.546875 214.804688 C 670.839844 175.59375 591.519531 125.652344 485.378906 103.253906 C 379.265625 80.847656 286.503906 94.46875 278.222656 133.667969 "/>
</g>
</g>
</g>
</g>
<g clip-path="url(#clip21)" clip-rule="nonzero">
<g clip-path="url(#clip22)" clip-rule="nonzero">
<g clip-path="url(#clip23)" clip-rule="nonzero">
<g clip-path="url(#clip24)" clip-rule="nonzero">
<path style=" stroke:none;fill-rule:nonzero;fill:rgb(13.729858%,12.159729%,12.548828%);fill-opacity:1;" d="M 278.222656 133.667969 L 274.265625 132.832031 C 273.015625 138.707031 273.511719 144.769531 275.460938 150.714844 C 278.730469 160.660156 285.878906 170.375 296.042969 179.824219 C 311.304688 193.976562 333.476562 207.570312 360.566406 219.550781 C 387.660156 231.515625 419.667969 241.824219 454.542969 249.183594 C 488.828125 256.421875 521.734375 259.929688 550.980469 260.054688 C 580.234375 260.167969 605.8125 256.921875 625.5625 250.476562 C 636.609375 246.863281 645.855469 242.253906 652.910156 236.5 C 656.425781 233.613281 659.394531 230.445312 661.699219 226.957031 C 664.007812 223.476562 665.652344 219.675781 666.503906 215.640625 C 667.746094 209.765625 667.257812 203.703125 665.308594 197.753906 C 662.039062 187.8125 654.882812 178.097656 644.722656 168.648438 C 629.464844 154.492188 607.289062 140.902344 580.199219 128.929688 C 553.101562 116.964844 521.097656 106.65625 486.222656 99.292969 C 451.9375 92.058594 419.03125 88.542969 389.78125 88.421875 C 360.527344 88.304688 334.953125 91.550781 315.199219 97.996094 C 304.152344 101.613281 294.902344 106.222656 287.855469 111.976562 C 284.335938 114.851562 281.371094 118.03125 279.0625 121.515625 C 276.753906 124.996094 275.113281 128.796875 274.265625 132.832031 L 278.222656 133.667969 L 282.1875 134.5 C 282.820312 131.507812 284.023438 128.695312 285.808594 125.984375 C 288.496094 121.925781 292.539062 118.117188 297.90625 114.691406 C 303.265625 111.265625 309.933594 108.230469 317.710938 105.6875 C 336.265625 99.621094 361.125 96.390625 389.742188 96.511719 C 418.371094 96.632812 450.769531 100.082031 484.546875 107.21875 C 530.351562 116.875 571.113281 131.722656 601.683594 148.5 C 616.964844 156.878906 629.699219 165.742188 639.21875 174.582031 C 648.75 183.414062 655 192.230469 657.613281 200.269531 C 659.183594 205.097656 659.5 209.613281 658.582031 213.964844 C 657.949219 216.957031 656.746094 219.777344 654.953125 222.492188 C 652.265625 226.546875 648.222656 230.355469 642.855469 233.785156 C 637.496094 237.210938 630.832031 240.246094 623.050781 242.785156 C 604.492188 248.855469 579.636719 252.085938 551.019531 251.960938 C 522.390625 251.84375 489.988281 248.402344 456.214844 241.269531 C 410.410156 231.601562 369.65625 216.746094 339.089844 199.980469 C 323.796875 191.601562 311.070312 182.734375 301.550781 173.894531 C 292.019531 165.058594 285.769531 156.246094 283.15625 148.203125 C 281.585938 143.375 281.265625 138.859375 282.183594 134.507812 L 278.222656 133.667969 "/>
</g>
</g>
</g>
</g>
<g clip-path="url(#clip25)" clip-rule="nonzero">
<g clip-path="url(#clip26)" clip-rule="nonzero">
<g clip-path="url(#clip27)" clip-rule="nonzero">
<g clip-path="url(#clip28)" clip-rule="nonzero">
<path style=" stroke:none;fill-rule:nonzero;fill:rgb(10.978699%,39.219666%,20.388794%);fill-opacity:1;" d="M 106.296875 399.003906 C 90.445312 473.992188 166.386719 591.046875 372.023438 634.460938 C 572.980469 676.878906 694.488281 601.503906 710.347656 526.511719 C 726.195312 451.523438 573.660156 514.605469 406.867188 479.386719 C 240.058594 444.179688 122.148438 324.015625 106.296875 399.003906 "/>
</g>
</g>
</g>
</g>
<g clip-path="url(#clip29)" clip-rule="nonzero">
<g clip-path="url(#clip30)" clip-rule="nonzero">
<g clip-path="url(#clip31)" clip-rule="nonzero">
<g clip-path="url(#clip32)" clip-rule="nonzero">
<path style=" stroke:none;fill-rule:nonzero;fill:rgb(13.729858%,12.159729%,12.548828%);fill-opacity:1;" d="M 106.296875 399.003906 L 102.339844 398.167969 C 98.488281 416.378906 99.847656 436.789062 106.742188 457.878906 C 118.132812 492.734375 144.589844 529.480469 187.988281 561.707031 C 231.40625 593.9375 291.773438 621.65625 371.1875 638.417969 C 463.136719 657.828125 538.796875 652.785156 595.660156 634.214844 C 629.753906 623.078125 657.097656 607.078125 677.09375 588.503906 C 697.089844 569.9375 709.769531 548.773438 714.304688 527.347656 C 715.980469 519.402344 715.96875 512.558594 714.054688 506.679688 C 712.984375 503.378906 711.296875 500.433594 709.082031 497.917969 C 707.015625 495.558594 704.507812 493.578125 701.667969 491.933594 C 696.324219 488.855469 689.828125 486.910156 682.300781 485.628906 C 669.113281 483.40625 652.644531 483.246094 633.433594 483.78125 C 604.632812 484.605469 569.695312 487.058594 531.183594 487.027344 C 492.675781 487.003906 450.621094 484.492188 407.703125 475.429688 C 339.242188 460.988281 278.886719 432.035156 230.398438 408.226562 C 206.140625 396.320312 184.871094 385.695312 166.855469 378.8125 C 157.84375 375.371094 149.640625 372.851562 142.191406 371.613281 C 134.753906 370.386719 128.003906 370.410156 122.015625 372.359375 C 117.042969 373.960938 112.691406 376.992188 109.394531 381.359375 C 106.089844 385.71875 103.792969 391.3125 102.339844 398.167969 L 106.296875 399.003906 L 110.261719 399.835938 C 111.535156 393.796875 113.472656 389.367188 115.84375 386.25 C 118.230469 383.132812 120.996094 381.214844 124.527344 380.050781 C 128.761719 378.652344 134.21875 378.488281 140.867188 379.59375 C 152.496094 381.507812 167.496094 387.289062 185.113281 395.359375 C 211.5625 407.460938 243.980469 424.636719 281.160156 441.195312 C 318.34375 457.753906 360.320312 473.703125 406.027344 483.34375 C 481.742188 499.328125 554.316406 495.207031 609.53125 492.792969 C 637.109375 491.574219 660.398438 490.808594 677.21875 493.050781 C 685.628906 494.152344 692.371094 496.019531 697.167969 498.6875 C 699.574219 500.019531 701.492188 501.535156 702.996094 503.25 C 704.496094 504.96875 705.601562 506.894531 706.359375 509.195312 C 707.695312 513.257812 707.875 518.640625 706.390625 525.675781 C 702.269531 545.144531 690.597656 564.929688 671.59375 582.582031 C 652.589844 600.226562 626.28125 615.707031 593.148438 626.527344 C 537.890625 644.578125 463.660156 649.671875 372.859375 630.503906 C 294.402344 613.941406 235.125 586.625 192.820312 555.214844 C 150.503906 523.804688 125.175781 488.292969 114.429688 455.367188 C 107.925781 435.433594 106.738281 416.46875 110.253906 399.839844 L 106.296875 399.003906 "/>
</g>
</g>
</g>
</g>
<g clip-path="url(#clip33)" clip-rule="nonzero">
<g clip-path="url(#clip34)" clip-rule="nonzero">
<g clip-path="url(#clip35)" clip-rule="nonzero">
<g clip-path="url(#clip36)" clip-rule="nonzero">
<path style=" stroke:none;fill-rule:nonzero;fill:rgb(20.388794%,48.239136%,20.388794%);fill-opacity:1;" d="M 620.796875 240.503906 C 602.847656 246.367188 578.804688 249.492188 551.117188 249.371094 C 523.402344 249.257812 492.03125 245.917969 459.320312 239.011719 C 414.976562 229.65625 375.519531 215.273438 345.933594 199.039062 C 331.140625 190.925781 318.828125 182.34375 309.621094 173.792969 C 308.027344 172.3125 306.519531 170.832031 305.117188 169.359375 C 305.617188 169.765625 306.125 170.175781 306.640625 170.578125 C 322.210938 182.910156 343.085938 194.644531 367.792969 204.972656 C 392.5 215.300781 421.035156 224.199219 451.894531 230.710938 L 452.730469 226.753906 L 451.894531 230.710938 C 485.109375 237.726562 516.988281 241.125 545.324219 241.242188 C 573.664062 241.351562 598.441406 238.207031 617.589844 231.960938 C 628.304688 228.457031 637.273438 223.988281 644.117188 218.394531 C 647.535156 215.605469 650.417969 212.515625 652.65625 209.128906 C 653.699219 207.558594 654.601562 205.921875 655.351562 204.226562 C 655.808594 207.144531 655.742188 209.941406 655.171875 212.671875 C 654.5625 215.550781 653.40625 218.265625 651.679688 220.878906 C 649.09375 224.789062 645.183594 228.46875 640 231.785156 C 634.820312 235.089844 628.382812 238.023438 620.863281 240.480469 C 620.855469 240.484375 620.851562 240.484375 620.84375 240.488281 C 620.828125 240.492188 620.808594 240.5 620.796875 240.503906 "/>
</g>
</g>
</g>
</g>
<g clip-path="url(#clip37)" clip-rule="nonzero">
<g clip-path="url(#clip38)" clip-rule="nonzero">
<g clip-path="url(#clip39)" clip-rule="nonzero">
<g clip-path="url(#clip40)" clip-rule="nonzero">
<path style=" stroke:none;fill-rule:nonzero;fill:rgb(13.729858%,12.159729%,12.548828%);fill-opacity:1;" d="M 623.355469 248.179688 C 604.203125 254.425781 579.421875 257.570312 551.082031 257.460938 C 522.742188 257.339844 490.867188 253.941406 457.648438 246.925781 C 423.871094 239.800781 392.863281 229.808594 366.625 218.21875 C 340.375 206.613281 318.898438 193.445312 304.109375 179.722656 C 294.265625 170.5625 287.320312 161.140625 284.152344 151.480469 C 283.886719 150.664062 283.644531 149.839844 283.433594 149.015625 C 286.191406 156.839844 292.34375 165.351562 301.550781 173.894531 C 311.070312 182.734375 323.796875 191.601562 339.089844 199.980469 C 369.65625 216.746094 410.410156 231.601562 456.214844 241.269531 C 489.988281 248.402344 522.390625 251.84375 551.019531 251.960938 C 579.613281 252.085938 604.453125 248.859375 623.003906 242.800781 C 623.015625 242.796875 623.035156 242.792969 623.050781 242.785156 C 623.058594 242.785156 623.058594 242.785156 623.0625 242.78125 C 630.835938 240.242188 637.496094 237.210938 642.855469 233.785156 C 648.222656 230.355469 652.265625 226.546875 654.953125 222.492188 C 656.746094 219.777344 657.949219 216.957031 658.582031 213.964844 C 659.5 209.613281 659.183594 205.097656 657.613281 200.269531 C 656.21875 195.984375 653.796875 191.480469 650.390625 186.875 C 650.882812 186.121094 651.621094 185.535156 652.53125 185.238281 C 652.53125 185.238281 652.535156 185.234375 652.535156 185.234375 C 654.339844 184.644531 656.289062 185.378906 657.257812 187.003906 C 659.238281 190.320312 660.8125 193.664062 661.910156 197.035156 C 663.796875 202.785156 664.292969 208.648438 663.09375 214.339844 C 662.265625 218.261719 660.667969 221.960938 658.425781 225.347656 C 656.179688 228.734375 653.300781 231.816406 649.878906 234.613281 C 643.035156 240.203125 634.066406 244.675781 623.355469 248.179688 "/>
</g>
</g>
</g>
</g>
<g clip-path="url(#clip41)" clip-rule="nonzero">
<g clip-path="url(#clip42)" clip-rule="nonzero">
<g clip-path="url(#clip43)" clip-rule="nonzero">
<g clip-path="url(#clip44)" clip-rule="nonzero">
<path style=" stroke:none;fill-rule:nonzero;fill:rgb(15.689087%,37.249756%,18.429565%);fill-opacity:1;" d="M 623.003906 242.800781 C 604.453125 248.859375 579.613281 252.085938 551.019531 251.960938 C 522.390625 251.84375 489.988281 248.402344 456.214844 241.269531 C 410.410156 231.601562 369.65625 216.746094 339.089844 199.980469 C 323.796875 191.601562 311.070312 182.734375 301.550781 173.894531 C 292.34375 165.351562 286.191406 156.839844 283.433594 149.015625 C 282.960938 147.183594 282.636719 145.347656 282.464844 143.507812 C 282.289062 141.621094 283.433594 139.871094 285.238281 139.285156 C 287.035156 138.695312 288.996094 139.425781 289.964844 141.050781 C 294.441406 148.546875 301.820312 156.445312 311.667969 164.234375 C 321.511719 172.03125 333.8125 179.738281 348.085938 186.992188 C 376.636719 201.515625 413.054688 214.242188 453.566406 222.796875 L 451.894531 230.710938 C 421.035156 224.199219 392.5 215.300781 367.792969 204.972656 C 343.085938 194.644531 322.210938 182.910156 306.640625 170.578125 C 306.125 170.175781 305.617188 169.765625 305.117188 169.359375 C 306.519531 170.832031 308.027344 172.3125 309.621094 173.792969 C 318.828125 182.34375 331.140625 190.925781 345.933594 199.039062 C 375.519531 215.273438 414.976562 229.65625 459.320312 239.011719 C 492.03125 245.917969 523.402344 249.257812 551.117188 249.371094 C 578.804688 249.492188 602.847656 246.367188 620.796875 240.503906 C 620.808594 240.5 620.828125 240.492188 620.84375 240.488281 C 620.851562 240.484375 620.855469 240.484375 620.863281 240.480469 C 628.382812 238.023438 634.820312 235.089844 640 231.785156 C 645.183594 228.46875 649.09375 224.789062 651.679688 220.878906 C 653.40625 218.265625 654.5625 215.550781 655.171875 212.671875 C 655.742188 209.941406 655.808594 207.144531 655.351562 204.226562 C 654.601562 205.921875 653.699219 207.558594 652.65625 209.128906 C 650.417969 212.515625 647.535156 215.605469 644.117188 218.394531 C 637.273438 223.988281 628.304688 228.457031 617.589844 231.960938 C 598.441406 238.207031 573.664062 241.351562 545.324219 241.242188 C 516.988281 241.125 485.109375 237.726562 451.894531 230.710938 L 453.566406 222.796875 C 486.273438 229.699219 517.644531 233.039062 545.355469 233.148438 C 573.039062 233.269531 597.085938 230.144531 615.035156 224.285156 C 615.046875 224.28125 615.0625 224.273438 615.074219 224.269531 C 615.082031 224.269531 615.085938 224.265625 615.09375 224.265625 C 622.613281 221.808594 629.058594 218.871094 634.230469 215.566406 C 639.421875 212.25 643.324219 208.574219 645.910156 204.664062 C 647.636719 202.050781 648.796875 199.332031 649.40625 196.453125 L 649.414062 196.445312 C 649.882812 194.222656 649.976562 191.902344 649.761719 189.445312 C 649.675781 188.511719 649.914062 187.613281 650.390625 186.875 C 653.796875 191.480469 656.21875 195.984375 657.613281 200.269531 C 659.183594 205.097656 659.5 209.613281 658.582031 213.964844 C 657.949219 216.957031 656.746094 219.777344 654.953125 222.492188 C 652.265625 226.546875 648.222656 230.355469 642.855469 233.785156 C 637.496094 237.210938 630.835938 240.242188 623.0625 242.78125 C 623.058594 242.785156 623.058594 242.785156 623.050781 242.785156 C 623.035156 242.792969 623.015625 242.796875 623.003906 242.800781 "/>
</g>
</g>
</g>
</g>
<g clip-path="url(#clip45)" clip-rule="nonzero">
<g clip-path="url(#clip46)" clip-rule="nonzero">
<g clip-path="url(#clip47)" clip-rule="nonzero">
<g clip-path="url(#clip48)" clip-rule="nonzero">
<path style=" stroke:none;fill-rule:nonzero;fill:rgb(16.079712%,14.118958%,17.248535%);fill-opacity:1;" d="M 561.035156 460.6875 C 560.769531 467.636719 545.238281 510.78125 544.210938 515.675781 C 536.875 550.386719 469.296875 560.855469 392.101562 544.550781 C 314.914062 528.265625 257.339844 491.390625 264.679688 456.6875 C 266.578125 447.714844 270.621094 403.070312 272.289062 399.738281 C 273.976562 396.398438 281.523438 391.515625 281.523438 391.515625 C 281.523438 391.515625 280.433594 402.542969 280.203125 404.808594 C 295.191406 417.167969 336.121094 447.882812 409.285156 463.328125 C 482.511719 478.792969 534.644531 470.933594 553.511719 465.738281 C 554.851562 460.4375 560.683594 446.515625 560.683594 446.515625 C 560.683594 446.515625 561.296875 453.730469 561.035156 460.6875 "/>
</g>
</g>
</g>
</g>
<g clip-path="url(#clip49)" clip-rule="nonzero">
<g clip-path="url(#clip50)" clip-rule="nonzero">
<g clip-path="url(#clip51)" clip-rule="nonzero">
<g clip-path="url(#clip52)" clip-rule="nonzero">
<path style=" stroke:none;fill-rule:nonzero;fill:rgb(13.729858%,12.159729%,12.548828%);fill-opacity:1;" d="M 561.035156 460.6875 L 556.984375 460.53125 C 556.988281 460.636719 556.9375 461.082031 556.832031 461.667969 C 556.628906 462.777344 556.222656 464.453125 555.675781 466.445312 C 553.769531 473.453125 550.140625 484.488281 546.894531 494.207031 C 545.277344 499.070312 543.75 503.617188 542.574219 507.222656 C 541.976562 509.023438 541.476562 510.585938 541.085938 511.855469 C 540.886719 512.488281 540.722656 513.046875 540.585938 513.535156 C 540.445312 514.027344 540.339844 514.433594 540.25 514.851562 L 540.253906 514.84375 C 539 520.703125 535.828125 525.75 530.671875 530.226562 C 525.515625 534.691406 518.359375 538.464844 509.546875 541.34375 C 495.898438 545.808594 478.324219 548.109375 458.386719 548.023438 C 438.449219 547.941406 416.144531 545.496094 392.9375 540.59375 C 360.566406 533.769531 331.710938 523.265625 309.964844 510.957031 C 299.089844 504.8125 290.003906 498.210938 283.140625 491.476562 C 276.265625 484.75 271.664062 477.90625 269.53125 471.355469 C 267.992188 466.628906 267.683594 462.078125 268.640625 457.527344 L 268.644531 457.519531 C 268.917969 456.21875 269.1875 454.503906 269.488281 452.371094 C 270.539062 444.9375 271.875 432.664062 273.132812 421.851562 C 273.761719 416.453125 274.375 411.425781 274.90625 407.613281 C 275.175781 405.703125 275.425781 404.105469 275.640625 402.953125 C 275.746094 402.378906 275.847656 401.921875 275.917969 401.625 L 276 401.34375 L 275.996094 401.339844 L 274.289062 400.734375 L 275.914062 401.546875 L 275.996094 401.339844 L 274.289062 400.734375 L 275.914062 401.546875 L 275.898438 401.566406 C 275.945312 401.429688 276.492188 400.679688 277.28125 399.929688 C 278.457031 398.773438 280.113281 397.46875 281.433594 396.5 C 282.101562 396.015625 282.679688 395.613281 283.09375 395.332031 C 283.300781 395.191406 283.460938 395.085938 283.570312 395.007812 L 283.6875 394.929688 L 283.722656 394.914062 L 281.523438 391.515625 L 277.492188 391.113281 C 277.496094 391.121094 277.222656 393.871094 276.921875 396.914062 C 276.621094 399.953125 276.292969 403.277344 276.179688 404.398438 C 276.039062 405.746094 276.585938 407.066406 277.628906 407.929688 C 285.253906 414.222656 299.5 425.183594 321.046875 436.496094 C 342.601562 447.808594 371.488281 459.480469 408.449219 467.292969 C 445.386719 475.089844 477.046875 477.011719 501.894531 476.324219 C 526.753906 475.632812 544.757812 472.339844 554.585938 469.636719 C 555.988281 469.25 557.070312 468.144531 557.425781 466.734375 C 557.695312 465.660156 558.289062 463.851562 559.003906 461.867188 C 560.074219 458.871094 561.4375 455.40625 562.527344 452.710938 C 563.070312 451.355469 563.542969 450.199219 563.878906 449.375 C 564.050781 448.960938 564.183594 448.640625 564.277344 448.414062 C 564.371094 448.191406 564.417969 448.078125 564.417969 448.078125 L 560.683594 446.515625 L 556.65625 446.855469 L 556.65625 446.921875 C 556.71875 447.652344 557.222656 454.316406 556.988281 460.539062 L 561.035156 460.6875 L 565.074219 460.835938 C 565.34375 453.558594 564.722656 446.261719 564.714844 446.175781 C 564.558594 444.3125 563.164062 442.808594 561.320312 442.519531 C 559.46875 442.226562 557.675781 443.230469 556.953125 444.957031 C 556.945312 444.972656 555.480469 448.46875 553.832031 452.664062 C 553.011719 454.753906 552.140625 457.027344 551.386719 459.128906 C 550.628906 461.253906 549.984375 463.164062 549.585938 464.746094 L 553.511719 465.738281 L 552.429688 461.835938 C 543.398438 464.332031 525.902344 467.566406 501.675781 468.238281 C 477.4375 468.914062 446.410156 467.035156 410.125 459.371094 C 373.925781 451.730469 345.757812 440.320312 324.8125 429.324219 C 303.859375 418.328125 290.140625 407.753906 282.78125 401.683594 L 280.203125 404.808594 L 284.230469 405.207031 C 284.460938 402.9375 285.550781 391.914062 285.550781 391.914062 C 285.707031 390.367188 284.953125 388.863281 283.632812 388.058594 C 282.308594 387.253906 280.625 387.28125 279.320312 388.117188 C 279.261719 388.15625 277.300781 389.429688 275.046875 391.183594 C 273.921875 392.070312 272.71875 393.074219 271.609375 394.15625 C 270.507812 395.257812 269.480469 396.371094 268.679688 397.910156 L 268.671875 397.925781 C 268.460938 398.363281 268.359375 398.660156 268.257812 398.972656 C 268.085938 399.554688 267.949219 400.144531 267.804688 400.84375 C 267.546875 402.144531 267.28125 403.792969 266.996094 405.777344 C 266 412.671875 264.804688 423.460938 263.652344 433.46875 C 263.082031 438.457031 262.523438 443.246094 262.015625 447.210938 C 261.765625 449.1875 261.523438 450.960938 261.300781 452.4375 C 261.085938 453.910156 260.878906 455.109375 260.722656 455.851562 C 259.445312 461.863281 259.90625 467.976562 261.835938 473.867188 C 264.523438 482.082031 269.957031 489.890625 277.472656 497.257812 C 288.75 508.308594 304.800781 518.441406 324.230469 527.199219 C 343.65625 535.941406 366.472656 543.277344 391.265625 548.515625 C 414.964844 553.515625 437.78125 556.03125 458.355469 556.113281 C 478.929688 556.191406 497.257812 553.863281 512.058594 549.035156 C 521.609375 545.910156 529.71875 541.738281 535.964844 536.351562 C 542.195312 530.980469 546.542969 524.28125 548.171875 516.519531 L 548.175781 516.511719 C 548.191406 516.398438 548.296875 515.992188 548.449219 515.457031 C 549.042969 513.40625 550.382812 509.34375 552.019531 504.429688 C 554.480469 497.042969 557.65625 487.632812 560.246094 479.417969 C 561.539062 475.3125 562.691406 471.503906 563.546875 468.359375 C 563.96875 466.785156 564.324219 465.378906 564.585938 464.148438 C 564.84375 462.90625 565.03125 461.902344 565.074219 460.835938 L 561.035156 460.6875 "/>
</g>
</g>
</g>
</g>
<g clip-path="url(#clip53)" clip-rule="nonzero">
<g clip-path="url(#clip54)" clip-rule="nonzero">
<g clip-path="url(#clip55)" clip-rule="nonzero">
<g clip-path="url(#clip56)" clip-rule="nonzero">
<path style=" stroke:none;fill-rule:nonzero;fill:rgb(98.039246%,74.119568%,7.839966%);fill-opacity:1;" d="M 348.847656 465.886719 C 351.019531 457.859375 358.855469 452.988281 366.308594 455.015625 L 395.90625 463.050781 C 403.363281 465.082031 407.652344 473.238281 405.453125 481.277344 L 394.503906 521.5625 C 392.316406 529.589844 384.5 534.457031 377.03125 532.429688 L 347.441406 524.398438 C 339.972656 522.363281 335.6875 514.21875 337.886719 506.179688 Z M 336.582031 453.792969 L 321.183594 510.398438 C 318.117188 521.6875 324.769531 533.328125 336.066406 536.386719 L 380.757812 548.535156 C 392.054688 551.59375 403.695312 544.941406 406.757812 533.660156 L 422.164062 477.042969 C 425.234375 465.753906 418.574219 454.128906 407.285156 451.058594 L 362.574219 438.917969 C 351.300781 435.84375 339.648438 442.507812 336.582031 453.792969 "/>
</g>
</g>
</g>
</g>
<g clip-path="url(#clip57)" clip-rule="nonzero">
<g clip-path="url(#clip58)" clip-rule="nonzero">
<g clip-path="url(#clip59)" clip-rule="nonzero">
<g clip-path="url(#clip60)" clip-rule="nonzero">
<path style=" stroke:none;fill-rule:nonzero;fill:rgb(13.729858%,12.159729%,12.548828%);fill-opacity:1;" d="M 348.847656 465.886719 L 352.75 466.9375 C 353.816406 462.976562 356.710938 460.125 359.964844 459.066406 C 361.679688 458.515625 363.460938 458.4375 365.25 458.917969 L 394.84375 466.953125 C 396.417969 467.382812 397.777344 468.199219 398.898438 469.3125 C 400.023438 470.429688 400.894531 471.855469 401.417969 473.464844 C 402.089844 475.515625 402.191406 477.847656 401.546875 480.210938 L 390.597656 520.503906 C 389.519531 524.46875 386.632812 527.320312 383.382812 528.371094 C 381.671875 528.933594 379.882812 529.011719 378.085938 528.527344 L 348.503906 520.492188 C 346.917969 520.0625 345.558594 519.246094 344.4375 518.132812 C 343.3125 517.015625 342.441406 515.589844 341.917969 513.980469 C 341.25 511.929688 341.140625 509.605469 341.785156 507.246094 L 341.789062 507.238281 L 352.75 466.945312 L 348.847656 465.886719 L 344.9375 464.820312 L 333.980469 505.113281 L 333.984375 505.105469 C 332.914062 509 333.0625 512.957031 334.222656 516.492188 C 335.132812 519.273438 336.660156 521.808594 338.726562 523.867188 C 340.789062 525.917969 343.402344 527.492188 346.382812 528.300781 L 375.96875 536.335938 C 379.332031 537.25 382.777344 537.089844 385.898438 536.0625 C 391.808594 534.125 396.617188 529.175781 398.410156 522.621094 L 409.359375 482.335938 L 409.359375 482.34375 C 410.421875 478.445312 410.273438 474.488281 409.113281 470.953125 C 408.203125 468.167969 406.679688 465.636719 404.609375 463.585938 C 402.554688 461.527344 399.945312 459.953125 396.96875 459.144531 L 367.375 451.109375 C 364.015625 450.191406 360.566406 450.359375 357.453125 451.375 C 351.53125 453.316406 346.726562 458.273438 344.941406 464.824219 Z M 336.582031 453.792969 L 332.675781 452.726562 L 317.277344 509.339844 C 315.941406 514.25 316.15625 519.261719 317.628906 523.773438 C 318.910156 527.671875 321.113281 531.222656 324.078125 534.085938 C 327.03125 536.957031 330.757812 539.136719 335.003906 540.289062 L 379.695312 552.433594 C 384.617188 553.773438 389.621094 553.558594 394.140625 552.078125 C 398.042969 550.804688 401.585938 548.597656 404.457031 545.636719 C 407.320312 542.679688 409.507812 538.960938 410.664062 534.71875 L 426.070312 478.101562 C 427.40625 473.191406 427.1875 468.1875 425.714844 463.675781 C 423.175781 455.882812 416.855469 449.46875 408.34375 447.15625 L 363.640625 435.011719 C 358.726562 433.671875 353.722656 433.886719 349.207031 435.363281 C 345.304688 436.636719 341.757812 438.847656 338.886719 441.804688 C 336.015625 444.765625 333.828125 448.484375 332.675781 452.726562 L 336.582031 453.792969 L 340.484375 454.851562 C 341.273438 451.953125 342.746094 449.449219 344.695312 447.4375 C 346.640625 445.429688 349.070312 443.921875 351.71875 443.054688 C 354.792969 442.050781 358.15625 441.902344 361.511719 442.816406 L 406.226562 454.964844 C 412.015625 456.539062 416.28125 460.878906 418.019531 466.1875 C 419.023438 469.257812 419.171875 472.621094 418.261719 475.984375 L 402.851562 532.59375 C 402.0625 535.5 400.582031 537.996094 398.640625 540.007812 C 396.695312 542.015625 394.277344 543.519531 391.628906 544.386719 C 388.550781 545.390625 385.1875 545.539062 381.820312 544.625 L 337.125 532.484375 C 334.21875 531.691406 331.714844 530.21875 329.710938 528.273438 C 327.699219 526.332031 326.1875 523.910156 325.324219 521.261719 C 324.328125 518.1875 324.175781 514.820312 325.089844 511.457031 L 340.484375 454.851562 L 336.582031 453.792969 "/>
</g>
</g>
</g>
</g>
<g clip-path="url(#clip61)" clip-rule="nonzero">
<g clip-path="url(#clip62)" clip-rule="nonzero">
<g clip-path="url(#clip63)" clip-rule="nonzero">
<g clip-path="url(#clip64)" clip-rule="nonzero">
<path style=" stroke:none;fill-rule:nonzero;fill:rgb(98.039246%,74.119568%,7.839966%);fill-opacity:1;" d="M 323.910156 477.679688 C 322.757812 481.933594 325.269531 486.3125 329.523438 487.484375 L 364.484375 496.980469 C 368.746094 498.136719 373.132812 495.625 374.304688 491.363281 C 375.453125 487.105469 372.9375 482.714844 368.6875 481.554688 L 333.726562 472.058594 C 329.464844 470.898438 325.078125 473.421875 323.910156 477.679688 "/>
</g>
</g>
</g>
</g>
<g clip-path="url(#clip65)" clip-rule="nonzero">
<g clip-path="url(#clip66)" clip-rule="nonzero">
<g clip-path="url(#clip67)" clip-rule="nonzero">
<g clip-path="url(#clip68)" clip-rule="nonzero">
<path style=" stroke:none;fill-rule:nonzero;fill:rgb(13.729858%,12.159729%,12.548828%);fill-opacity:1;" d="M 323.910156 477.679688 L 320.003906 476.621094 C 319.371094 478.957031 319.472656 481.351562 320.179688 483.492188 C 321.382812 487.203125 324.402344 490.269531 328.449219 491.386719 L 328.464844 491.386719 L 363.421875 500.882812 C 365.761719 501.523438 368.160156 501.417969 370.3125 500.714844 C 374.03125 499.507812 377.09375 496.484375 378.203125 492.433594 L 378.210938 492.414062 C 378.839844 490.082031 378.730469 487.691406 378.03125 485.546875 C 376.824219 481.832031 373.804688 478.761719 369.753906 477.65625 L 369.746094 477.652344 L 334.785156 468.15625 C 332.449219 467.515625 330.054688 467.621094 327.898438 468.324219 C 324.179688 469.53125 321.109375 472.554688 320.007812 476.613281 L 320.003906 476.621094 L 323.910156 477.679688 L 327.808594 478.746094 C 328.179688 477.402344 329.179688 476.425781 330.410156 476.015625 C 331.117188 475.785156 331.878906 475.75 332.660156 475.960938 L 367.625 485.460938 L 367.617188 485.457031 C 368.949219 485.824219 369.925781 486.824219 370.335938 488.058594 C 370.570312 488.773438 370.605469 489.527344 370.394531 490.3125 L 370.402344 490.292969 C 370.039062 491.640625 369.03125 492.613281 367.800781 493.023438 C 367.09375 493.253906 366.332031 493.289062 365.550781 493.074219 L 330.585938 483.578125 L 330.597656 483.582031 C 329.253906 483.214844 328.277344 482.210938 327.875 480.980469 C 327.640625 480.273438 327.605469 479.511719 327.8125 478.734375 L 327.808594 478.746094 L 323.910156 477.679688 "/>
</g>
</g>
</g>
</g>
</g>
</svg>
