<?xml version="1.0" encoding="UTF-8"?>
<svg xmlns="http://www.w3.org/2000/svg" xmlns:xlink="http://www.w3.org/1999/xlink" width="810pt" height="809.999993pt" viewBox="0 0 810 809.999993" version="1.2">
<g id="surface1">
<path style=" stroke:none;fill-rule:nonzero;fill:rgb(100%,100%,100%);fill-opacity:1;" d="M 395.851562 376.015625 C 303.730469 375.5625 251.75 443.761719 228.050781 416.140625 C 225.265625 412.894531 177.042969 376.875 176.375 374.878906 C 170.96875 358.421875 133.222656 287.757812 152.984375 183.335938 C 100.136719 243.128906 59.769531 386.796875 137.484375 447.691406 C 158.574219 464.21875 181.972656 492.085938 207.078125 494.128906 C 262.46875 498.640625 317.972656 501.378906 373.53125 502.363281 C 380.972656 502.492188 388.421875 502.515625 395.851562 502.59375 Z M 395.851562 376.015625 "/>
<path style=" stroke:none;fill-rule:nonzero;fill:rgb(11.759949%,10.5896%,10.5896%);fill-opacity:1;" d="M 198.992188 479.449219 C 191.917969 493.613281 175.433594 499.746094 162.171875 493.152344 L 143.519531 483.882812 C 130.265625 477.28125 125.242188 460.445312 132.308594 446.289062 L 167.078125 376.582031 C 174.148438 362.414062 190.632812 356.285156 203.886719 362.890625 L 222.546875 372.15625 C 235.808594 378.757812 240.824219 395.582031 233.765625 409.75 Z M 198.992188 479.449219 "/>
<path style=" stroke:none;fill-rule:nonzero;fill:rgb(100%,100%,100%);fill-opacity:1;" d="M 392.589844 376.015625 C 484.714844 375.5625 536.707031 443.761719 560.398438 416.136719 C 563.191406 412.890625 611.417969 376.871094 612.074219 374.878906 C 617.484375 358.421875 655.234375 287.757812 635.464844 183.332031 C 688.320312 243.128906 728.671875 386.796875 650.976562 447.691406 C 629.882812 464.21875 606.484375 492.082031 581.359375 494.128906 C 525.992188 498.640625 470.480469 501.375 414.925781 502.359375 C 407.472656 502.492188 400.03125 502.515625 392.589844 502.59375 Z M 392.589844 376.015625 "/>
<path style=" stroke:none;fill-rule:nonzero;fill:rgb(11.759949%,10.5896%,10.5896%);fill-opacity:1;" d="M 589.46875 479.449219 C 596.535156 493.609375 613.019531 499.746094 626.269531 493.148438 L 644.929688 483.882812 C 658.183594 477.28125 663.21875 460.445312 656.136719 446.289062 L 621.375 376.582031 C 614.292969 362.414062 597.816406 356.285156 584.566406 362.886719 L 565.910156 372.15625 C 552.652344 378.753906 547.617188 395.582031 554.683594 409.75 Z M 589.46875 479.449219 "/>
<path style=" stroke:none;fill-rule:nonzero;fill:rgb(11.759949%,10.5896%,10.5896%);fill-opacity:1;" d="M 631.238281 584.75 C 631.238281 600.066406 618.800781 612.480469 603.457031 612.480469 L 182.125 612.480469 C 166.789062 612.480469 154.339844 600.066406 154.339844 584.75 L 154.339844 542.378906 C 154.339844 527.0625 166.789062 514.648438 182.125 514.648438 L 603.457031 514.648438 C 618.800781 514.648438 631.238281 527.0625 631.238281 542.378906 Z M 631.238281 584.75 "/>
<path style=" stroke:none;fill-rule:nonzero;fill:rgb(11.759949%,10.5896%,10.5896%);fill-opacity:1;" d="M 175.984375 514.648438 L 614.492188 514.648438 L 614.492188 612.476562 L 175.984375 612.476562 Z M 175.984375 514.648438 "/>
<path style=" stroke:none;fill-rule:nonzero;fill:rgb(59.999084%,19.999695%,0%);fill-opacity:1;" d="M 614.601562 514.648438 C 583.933594 390.9375 497.351562 282.960938 395.246094 282.960938 C 293.128906 282.960938 206.535156 390.9375 175.871094 514.648438 Z M 614.601562 514.648438 "/>
<path style=" stroke:none;fill-rule:nonzero;fill:rgb(100%,100%,100%);fill-opacity:1;" d="M 248.25 567.242188 C 248.25 580.070312 237.835938 590.46875 224.972656 590.46875 C 212.125 590.46875 201.71875 580.070312 201.71875 567.242188 C 201.71875 554.402344 212.125 544 224.972656 544 C 237.835938 544 248.25 554.402344 248.25 567.242188 Z M 248.25 567.242188 "/>
<path style=" stroke:none;fill-rule:nonzero;fill:rgb(100%,100%,100%);fill-opacity:1;" d="M 362.160156 567.242188 C 362.160156 580.070312 351.746094 590.46875 338.898438 590.46875 C 326.042969 590.46875 315.613281 580.070312 315.613281 567.242188 C 315.613281 554.402344 326.042969 544 338.898438 544 C 351.746094 544 362.160156 554.402344 362.160156 567.242188 Z M 362.160156 567.242188 "/>
<path style=" stroke:none;fill-rule:nonzero;fill:rgb(100%,100%,100%);fill-opacity:1;" d="M 476.082031 567.242188 C 476.082031 580.070312 465.65625 590.46875 452.800781 590.46875 C 439.953125 590.46875 429.539062 580.070312 429.539062 567.242188 C 429.539062 554.402344 439.953125 544 452.800781 544 C 465.65625 544 476.082031 554.402344 476.082031 567.242188 Z M 476.082031 567.242188 "/>
<path style=" stroke:none;fill-rule:nonzero;fill:rgb(100%,100%,100%);fill-opacity:1;" d="M 589.984375 567.242188 C 589.984375 580.070312 579.570312 590.46875 566.71875 590.46875 C 553.867188 590.46875 543.457031 580.070312 543.457031 567.242188 C 543.457031 554.402344 553.867188 544 566.71875 544 C 579.570312 544 589.984375 554.402344 589.984375 567.242188 Z M 589.984375 567.242188 "/>
<path style=" stroke:none;fill-rule:nonzero;fill:rgb(11.759949%,10.5896%,10.5896%);fill-opacity:1;" d="M 382.144531 269.097656 L 408.261719 269.097656 L 408.261719 557.042969 L 382.144531 557.042969 Z M 382.144531 269.097656 "/>
</g>
</svg>
