<?xml version="1.0" encoding="UTF-8"?>
<svg xmlns="http://www.w3.org/2000/svg" xmlns:xlink="http://www.w3.org/1999/xlink" width="810pt" height="809.999993pt" viewBox="0 0 810 809.999993" version="1.2">
<defs>
<clipPath id="clip1">
  <path d="M 132 523 L 789 523 L 789 762 L 132 762 Z M 132 523 "/>
</clipPath>
<clipPath id="clip2">
  <path d="M 26.453125 190.746094 L 670.261719 52.414062 L 794.097656 628.757812 L 150.292969 767.089844 Z M 26.453125 190.746094 "/>
</clipPath>
<clipPath id="clip3">
  <path d="M 26.453125 190.746094 L 670.261719 52.414062 L 794.097656 628.757812 L 150.292969 767.089844 Z M 26.453125 190.746094 "/>
</clipPath>
<clipPath id="clip4">
  <path d="M 192 277 L 703 277 L 703 643 L 192 643 Z M 192 277 "/>
</clipPath>
<clipPath id="clip5">
  <path d="M 26.453125 190.746094 L 670.261719 52.414062 L 794.097656 628.757812 L 150.292969 767.089844 Z M 26.453125 190.746094 "/>
</clipPath>
<clipPath id="clip6">
  <path d="M 26.453125 190.746094 L 670.261719 52.414062 L 794.097656 628.757812 L 150.292969 767.089844 Z M 26.453125 190.746094 "/>
</clipPath>
<clipPath id="clip7">
  <path d="M 265 137 L 478 137 L 478 313 L 265 313 Z M 265 137 "/>
</clipPath>
<clipPath id="clip8">
  <path d="M 26.453125 190.746094 L 670.261719 52.414062 L 794.097656 628.757812 L 150.292969 767.089844 Z M 26.453125 190.746094 "/>
</clipPath>
<clipPath id="clip9">
  <path d="M 26.453125 190.746094 L 670.261719 52.414062 L 794.097656 628.757812 L 150.292969 767.089844 Z M 26.453125 190.746094 "/>
</clipPath>
</defs>
<g id="surface1">
<g clip-path="url(#clip1)" clip-rule="nonzero">
<g clip-path="url(#clip2)" clip-rule="nonzero">
<g clip-path="url(#clip3)" clip-rule="nonzero">
<path style=" stroke:none;fill-rule:nonzero;fill:rgb(100%,56.858826%,30.198669%);fill-opacity:1;" d="M 787.453125 599.105469 C 790.960938 615.4375 780.5625 631.535156 764.234375 635.042969 L 180.113281 760.554688 C 163.773438 764.0625 147.6875 753.65625 144.179688 737.324219 L 133.175781 686.117188 C 129.664062 669.777344 140.058594 653.6875 156.394531 650.179688 L 740.515625 524.667969 C 756.84375 521.160156 772.9375 531.558594 776.449219 547.898438 L 787.453125 599.105469 "/>
</g>
</g>
</g>
<g clip-path="url(#clip4)" clip-rule="nonzero">
<g clip-path="url(#clip5)" clip-rule="nonzero">
<g clip-path="url(#clip6)" clip-rule="nonzero">
<path style=" stroke:none;fill-rule:nonzero;fill:rgb(0%,0%,0%);fill-opacity:1;" d="M 383.191406 283.671875 C 158.765625 329.308594 194.203125 642.054688 194.203125 642.054688 L 702.710938 532.792969 C 702.710938 532.792969 606.542969 233.09375 383.191406 283.671875 "/>
</g>
</g>
</g>
<g clip-path="url(#clip7)" clip-rule="nonzero">
<g clip-path="url(#clip8)" clip-rule="nonzero">
<g clip-path="url(#clip9)" clip-rule="nonzero">
<path style=" stroke:none;fill-rule:nonzero;fill:rgb(100%,56.858826%,30.198669%);fill-opacity:1;" d="M 356.328125 307.925781 C 356.328125 307.925781 407.316406 312.800781 433.785156 286.40625 C 433.785156 286.40625 474.425781 268.519531 476.902344 243.914062 C 479.390625 219.308594 461.242188 210.332031 469.632812 194.363281 C 478.03125 178.402344 458.855469 140.339844 423.109375 137.804688 C 387.359375 135.25 279.5625 136.292969 265.316406 228.839844 C 265.316406 228.839844 258.097656 336.800781 356.328125 307.925781 "/>
</g>
</g>
</g>
</g>
</svg>
