<?xml version="1.0" encoding="UTF-8"?>
<svg xmlns="http://www.w3.org/2000/svg" xmlns:xlink="http://www.w3.org/1999/xlink" width="810pt" height="809.999993pt" viewBox="0 0 810 809.999993" version="1.2">
<g id="surface1">
<path style=" stroke:none;fill-rule:nonzero;fill:rgb(0%,0%,0%);fill-opacity:1;" d="M 397.449219 694.566406 C 408.394531 694.566406 417.445312 694.617188 426.496094 694.550781 C 435.144531 694.484375 443.796875 694.367188 452.441406 694.152344 C 469.28125 693.734375 486.074219 692.585938 502.832031 690.847656 C 520.179688 689.046875 537.515625 687.144531 554.71875 684.1875 C 579.109375 679.992188 603.132812 674.292969 626.664062 666.613281 C 651.695312 658.441406 675.574219 647.765625 697.714844 633.425781 C 702.605469 630.257812 707.488281 627.050781 711.472656 622.703125 C 720.578125 612.753906 721.203125 601.015625 713.207031 590.195312 C 709.292969 584.890625 704.273438 580.828125 698.714844 577.398438 C 683.417969 567.964844 666.882812 561.378906 649.617188 556.640625 C 632.089844 551.832031 614.46875 547.34375 596.871094 542.792969 C 594.800781 542.253906 593.660156 541.09375 592.75 539.253906 C 584.375 522.292969 576.292969 505.167969 567.429688 488.464844 C 540.074219 436.898438 512.398438 385.503906 484.886719 334.019531 C 481.199219 327.121094 477.628906 320.152344 474.234375 313.101562 C 472.277344 309.035156 472.722656 304.867188 475.101562 301 C 476.785156 298.265625 478.484375 295.53125 480.328125 292.898438 C 513.316406 245.71875 546.335938 198.554688 579.34375 151.378906 C 583.722656 145.113281 589.65625 141.210938 597.09375 139.570312 C 608.382812 137.078125 619.882812 136.449219 631.363281 135.65625 C 636.929688 135.269531 642.503906 134.984375 648.074219 134.671875 C 649.277344 134.605469 650.152344 134.253906 650.589844 132.972656 C 651.476562 130.367188 651.378906 129.960938 648.9375 128.488281 C 637.921875 121.847656 626.949219 115.136719 615.871094 108.601562 C 609.171875 104.648438 602.429688 100.734375 595.488281 97.230469 C 588.835938 93.878906 581.550781 92.238281 574.15625 91.703125 C 566.347656 91.136719 558.902344 93.09375 551.820312 96.375 C 534.625 104.351562 517.964844 113.347656 501.570312 122.824219 C 460.601562 146.507812 419.707031 170.324219 378.765625 194.058594 C 367.28125 200.714844 355.945312 207.574219 345.46875 215.785156 C 329.457031 228.332031 317.953125 244.046875 311.328125 263.308594 C 303.628906 285.699219 295.929688 308.089844 288.128906 330.445312 C 276.085938 364.972656 263.757812 399.398438 251.929688 434 C 240.980469 466.03125 230.523438 498.234375 219.871094 530.367188 C 218.867188 533.398438 217.203125 535.96875 214.890625 538.148438 C 210.902344 541.910156 206.1875 544.429688 200.988281 546.03125 C 190.71875 549.195312 180.390625 552.167969 170.160156 555.4375 C 159.355469 558.890625 148.515625 562.285156 137.90625 566.277344 C 123.308594 571.765625 111.941406 581.976562 101.320312 592.984375 C 97.800781 596.628906 96.546875 601.578125 97.097656 606.542969 C 97.71875 612.148438 100.089844 617.222656 103.523438 621.773438 C 110.90625 631.554688 120.039062 639.335938 130.761719 645.1875 C 155.851562 658.875 182.460938 668.65625 210.109375 675.742188 C 230.933594 681.082031 252.078125 684.574219 273.386719 687.246094 C 294.601562 689.902344 315.882812 691.707031 337.234375 692.589844 C 357.925781 693.453125 378.632812 693.960938 397.449219 694.566406 Z M 397.449219 694.566406 "/>
<path style=" stroke:none;fill-rule:nonzero;fill:rgb(50.19989%,50.979614%,52.159119%);fill-opacity:1;" d="M 392.65625 603.429688 C 365.363281 603.429688 338.015625 600.820312 310.917969 595.617188 C 238.417969 581.6875 189.558594 550.527344 187.671875 549.367188 L 205.046875 542.996094 C 205.050781 542.996094 205.050781 543 205.054688 543 C 205.773438 543.4375 245.148438 566.464844 314.679688 579.707031 C 355.53125 587.480469 396.960938 589.128906 437.816406 584.605469 C 488.867188 578.949219 542.980469 562.320312 591.214844 537.65625 L 614.402344 545.90625 C 564.25 571.546875 492.34375 595.054688 439.160156 600.890625 C 423.714844 602.585938 408.195312 603.429688 392.65625 603.429688 Z M 392.65625 603.429688 "/>
</g>
</svg>
