<?xml version="1.0" encoding="UTF-8"?>
<svg xmlns="http://www.w3.org/2000/svg" xmlns:xlink="http://www.w3.org/1999/xlink" width="810pt" height="809.999993pt" viewBox="0 0 810 809.999993" version="1.2">
<defs>
<clipPath id="clip1">
  <path d="M 651 662 L 739.441406 662 L 739.441406 729.375 L 651 729.375 Z M 651 662 "/>
</clipPath>
<clipPath id="clip2">
  <path d="M 85 91.125 L 200 91.125 L 200 192 L 85 192 Z M 85 91.125 "/>
</clipPath>
</defs>
<g id="surface1">
<path style=" stroke:none;fill-rule:nonzero;fill:rgb(48.239136%,67.059326%,16.468811%);fill-opacity:1;" d="M 698.902344 632.605469 C 682.703125 585.84375 653.023438 542.285156 614.625 508.554688 C 536.601562 440.042969 485.988281 383.449219 315.238281 346.5 C 224.972656 326.9375 110.917969 267.6875 141.085938 162.785156 C 99.792969 214.460938 81.152344 264.332031 125.859375 336.375 C 160.132812 391.722656 205.988281 528.96875 203.21875 598.207031 C 202.515625 616.4375 200.722656 657.050781 181.082031 717.773438 C 265.835938 665.492188 329.390625 652.65625 412.875 639.933594 C 523.253906 623.164062 645.15625 667.410156 711.996094 727.160156 C 714.367188 695.496094 709.5 663.300781 698.902344 632.605469 "/>
<g clip-path="url(#clip1)" clip-rule="nonzero">
<path style=" stroke:none;fill-rule:nonzero;fill:rgb(90.589905%,10.198975%,26.669312%);fill-opacity:1;" d="M 707.484375 729.71875 C 722.164062 709.082031 732.457031 691.777344 739.335938 662.875 C 706.425781 668.386719 677.289062 676.75 651.460938 688.355469 C 673.542969 702.871094 693.152344 711.070312 707.484375 729.71875 "/>
</g>
<path style=" stroke:none;fill-rule:nonzero;fill:rgb(90.589905%,10.198975%,26.669312%);fill-opacity:1;" d="M 651.460938 688.355469 C 654.910156 663.140625 655.222656 635.417969 651.59375 606.695312 C 623.457031 621.464844 598.410156 637.640625 576.65625 654.695312 C 603.457031 663.683594 628.480469 674.730469 651.460938 688.355469 "/>
<path style=" stroke:none;fill-rule:nonzero;fill:rgb(90.589905%,10.198975%,26.669312%);fill-opacity:1;" d="M 576.65625 654.695312 C 571.628906 629.199219 563.617188 602.84375 552.519531 575.832031 C 529.660156 595.78125 509.636719 617.234375 492.9375 638.429688 C 521.488281 641.273438 549.273438 647.035156 576.65625 654.695312 "/>
<path style=" stroke:none;fill-rule:nonzero;fill:rgb(90.589905%,10.198975%,26.669312%);fill-opacity:1;" d="M 492.9375 638.429688 C 481.492188 614.234375 466.433594 590.808594 447.722656 566.988281 C 430.5 591.679688 418.539062 616.875 409.667969 641.328125 C 437.210938 637.226562 464.269531 636.308594 492.9375 638.429688 "/>
<path style=" stroke:none;fill-rule:nonzero;fill:rgb(90.589905%,10.198975%,26.669312%);fill-opacity:1;" d="M 409.667969 641.328125 C 387.75 620.992188 368.851562 600.148438 347.664062 579.691406 C 336.210938 605.757812 325.597656 631.140625 319.441406 657.558594 C 347.289062 650.363281 375.320312 646.824219 409.667969 641.328125 "/>
<path style=" stroke:none;fill-rule:nonzero;fill:rgb(90.589905%,10.198975%,26.669312%);fill-opacity:1;" d="M 319.441406 657.558594 C 298.460938 638.429688 274.730469 620.601562 247.257812 606.40625 C 241.273438 633.394531 241.523438 662.742188 245.644531 687.703125 C 267.492188 674.636719 291.710938 663.957031 319.441406 657.558594 "/>
<path style=" stroke:none;fill-rule:nonzero;fill:rgb(90.589905%,10.198975%,26.669312%);fill-opacity:1;" d="M 246.945312 687.5 C 226.011719 694.351562 200.957031 704.96875 180.324219 719.0625 C 170.96875 702.160156 162.949219 683.382812 157.289062 663.0625 C 188.386719 667.566406 222.148438 676.5 246.945312 687.5 "/>
<g clip-path="url(#clip2)" clip-rule="nonzero">
<path style=" stroke:none;fill-rule:nonzero;fill:rgb(90.589905%,10.198975%,26.669312%);fill-opacity:1;" d="M 85.996094 141.28125 C 85.996094 168.9375 111.371094 191.417969 142.691406 191.417969 C 174.042969 191.417969 199.417969 168.9375 199.417969 141.28125 C 199.417969 113.625 174.042969 91.15625 142.691406 91.15625 C 111.371094 91.15625 85.996094 113.625 85.996094 141.28125 "/>
</g>
</g>
</svg>
