<?xml version="1.0" ?><!DOCTYPE svg  PUBLIC '-//W3C//DTD SVG 1.1//EN'  'http://www.w3.org/Graphics/SVG/1.1/DTD/svg11.dtd'><svg enable-background="new 0 0 49 49" id="Layer_1" version="1.1" viewBox="0 0 49 49" xml:space="preserve" xmlns="http://www.w3.org/2000/svg" xmlns:xlink="http://www.w3.org/1999/xlink"><g id="XMLID_10290_"><path d="M48.5,35.2V31h-7.2l-0.2,0.8l3.2,1.9c0.7,0.4,1.2,1.1,1.3,1.9v1.2   c-0.1,0.3-0.2,0.6-0.3,0.9c0,0-0.1,0.1-0.1,0.1h0.4v6.7h2.9L48.5,35.2L48.5,35.2z" fill="#fff" id="XMLID_1184_"/><polygon fill="#fff" id="XMLID_3477_" points="6.8,31 0.5,31 0.5,37.8 0.5,37.8 0.5,44.5 3.4,44.5 3.4,37.8 8.5,37.8  "/><path d="M30.5,32L30.5,32l-0.3-0.2c-0.2-0.1-0.4-0.3-0.5-0.4c-0.1-0.1-0.2-0.3-0.3-0.4H19.1   l-1.7,6.8h16.3l0.8-3.3L30.5,32z" fill="#fff" id="XMLID_3478_"/><circle cx="35.1" cy="9.3" fill="#fff" id="XMLID_3479_" r="4.8"/><path d="M26.3,29.9C26.3,29.9,26.3,29.9,26.3,29.9c1.1,0,2-0.9,2-2c-0.1-2.7,0.6-4.5,1.3-5.7v5.2   c0.5-0.5,1.3-0.9,2.1-0.9c0.5,0,1,0.1,1.5,0.4l2.8,1.7c0.3-1.3,1.5-2.1,2.8-2.1c0.2,0,0.5,0,0.7,0.1c0.5,0.1,0.9,0.3,1.2,0.6V22   c0.8,1.2,1.4,3,1.4,5.8c0,1.1,0.9,2,2,2c0,0,0,0,0,0c1.1,0,2-0.9,2-2c0.2-9.6-6.2-11.7-6.5-11.7c-0.2,0-0.3-0.1-0.5-0.1   c-0.1,0-0.2,0-0.3,0h-7.2c-0.1,0-0.2,0-0.3,0c-0.1,0-0.3,0-0.4,0.1c-0.3,0.1-6.7,2.1-6.5,11.7C24.3,29,25.2,29.9,26.3,29.9z    M34.1,19.5c0.3-0.2,0.7-0.3,1.1-0.3s0.9,0.1,1.2,0.4c0.3,0.3,0.5,0.7,0.5,1.2c0,0.3-0.1,0.5-0.2,0.8c-0.1,0.3-0.4,0.6-0.8,0.9   l-1,1H37v1.1h-3.7v-0.9l1.5-1.6c0.3-0.3,0.5-0.6,0.7-0.8c0.1-0.2,0.2-0.4,0.2-0.5s-0.1-0.3-0.2-0.4c-0.1-0.1-0.3-0.2-0.4-0.2   c-0.3,0-0.6,0.2-0.9,0.7l-0.9-0.6C33.5,20,33.8,19.7,34.1,19.5z" fill="#fff" id="XMLID_3482_"/><path d="M30,28.4c-0.6,0.9-0.3,2.1,0.6,2.6l4.1,2.5l1-3.9l-3.1-1.9C31.7,27.2,30.6,27.5,30,28.4z" fill="#fff" id="XMLID_3483_"/><path d="M43.8,34.5l-2.9-1.8l-1,3.9l1.9,1.2c0.3,0.2,0.7,0.3,1,0.3c0.7,0,1.3-0.3,1.6-0.9   C45,36.2,44.7,35,43.8,34.5z" fill="#fff" id="XMLID_3484_"/><path d="M40.6,29.8c0-0.1,0-0.2,0.1-0.4v-0.2c0-0.8-0.6-1.5-1.4-1.7c-1-0.3-2.1,0.4-2.3,1.4   l-0.1,0.3l-3,11.7c-0.3,1,0.4,2.1,1.4,2.3c0.2,0,0.3,0.1,0.5,0.1c0.9,0,1.6-0.6,1.9-1.4l2.7-10.6L40.6,29.8z" fill="#fff" id="XMLID_3485_"/><circle cx="12.9" cy="9.3" fill="#fff" id="XMLID_3486_" r="4.8"/><path d="M4.1,29.9C4.1,29.9,4.1,29.9,4.1,29.9c1.1,0,2-0.9,2-2c-0.1-2.7,0.6-4.6,1.3-5.7v5.1   c0.5-0.5,1.2-0.8,2-0.8c0.1,0,0.3,0,0.5,0c1.1,0.1,2,1,2.3,2.1l0.8,3.3l0,0l0.1-0.2l0,0l0.8-3c0.3-1.1,1.2-2,2.3-2.1   c0.1,0,0.3,0,0.5,0c0.7,0,1.4,0.3,1.9,0.8V22c0.8,1.2,1.4,3,1.4,5.8c0,1.1,0.9,2,2,2c0,0,0,0,0,0c1.1,0,2-0.9,2-2   c0.2-9.6-6.2-11.7-6.5-11.7c-0.2-0.1-0.3-0.1-0.5-0.1c-0.1,0-0.2,0-0.3,0H9.3c-0.1,0-0.2,0-0.3,0c-0.2,0-0.3,0-0.5,0.1   c-0.3,0.1-6.7,2.1-6.5,11.7C2.1,29,3,29.9,4.1,29.9z M11.9,19.2H14v5.3h-1.1v-4.3h-1V19.2z" fill="#fff" id="XMLID_3489_"/><path d="M16.2,27.5c-0.7,0.1-1.3,0.7-1.5,1.4l-3.1,12c-0.2,0.6,0,1.4,0.5,1.8   c0.4,0.4,0.9,0.6,1.4,0.6c0.9,0,1.6-0.6,1.9-1.4l3.1-12C18.7,28.6,17.7,27.2,16.2,27.5z" fill="#fff" id="XMLID_3490_"/><polygon fill="#fff" id="XMLID_3491_" points="13,32 12.9,31.9 12.9,32  "/><path d="M10.7,40.7l1.7-6.8l0,0L12.2,33L12,32l0-0.1l-0.8-3c-0.2-0.7-0.8-1.3-1.5-1.4   c-1.5-0.2-2.5,1.1-2.2,2.4l3.1,12c0,0.2,0.1,0.4,0.2,0.6C10.6,41.9,10.6,41.3,10.7,40.7z" fill="#fff" id="XMLID_3492_"/></g></svg>
