<?xml version="1.0" encoding="UTF-8"?>
<svg xmlns="http://www.w3.org/2000/svg" xmlns:xlink="http://www.w3.org/1999/xlink" width="810pt" height="809.999993pt" viewBox="0 0 810 809.999993" version="1.2">
<defs>
<clipPath id="clip1">
  <path d="M 32 523 L 688 523 L 688 762 L 32 762 Z M 32 523 "/>
</clipPath>
<clipPath id="clip2">
  <path d="M 150.890625 51.96875 L 794.441406 191.480469 L 669.546875 767.597656 L 25.996094 628.085938 Z M 150.890625 51.96875 "/>
</clipPath>
<clipPath id="clip3">
  <path d="M 150.890625 51.96875 L 794.441406 191.480469 L 669.546875 767.597656 L 25.996094 628.085938 Z M 150.890625 51.96875 "/>
</clipPath>
<clipPath id="clip4">
  <path d="M 117 277 L 628 277 L 628 643 L 117 643 Z M 117 277 "/>
</clipPath>
<clipPath id="clip5">
  <path d="M 150.890625 51.96875 L 794.441406 191.480469 L 669.546875 767.597656 L 25.996094 628.085938 Z M 150.890625 51.96875 "/>
</clipPath>
<clipPath id="clip6">
  <path d="M 150.890625 51.96875 L 794.441406 191.480469 L 669.546875 767.597656 L 25.996094 628.085938 Z M 150.890625 51.96875 "/>
</clipPath>
<clipPath id="clip7">
  <path d="M 339 139 L 562 139 L 562 311 L 339 311 Z M 339 139 "/>
</clipPath>
<clipPath id="clip8">
  <path d="M 150.890625 51.96875 L 794.441406 191.480469 L 669.546875 767.597656 L 25.996094 628.085938 Z M 150.890625 51.96875 "/>
</clipPath>
<clipPath id="clip9">
  <path d="M 150.890625 51.96875 L 794.441406 191.480469 L 669.546875 767.597656 L 25.996094 628.085938 Z M 150.890625 51.96875 "/>
</clipPath>
</defs>
<g id="surface1">
<g clip-path="url(#clip1)" clip-rule="nonzero">
<g clip-path="url(#clip2)" clip-rule="nonzero">
<g clip-path="url(#clip3)" clip-rule="nonzero">
<path style=" stroke:none;fill-rule:nonzero;fill:rgb(100%,56.858826%,30.198669%);fill-opacity:1;" d="M 675.722656 737.84375 C 672.183594 754.167969 656.070312 764.542969 639.75 761.003906 L 55.859375 634.425781 C 39.527344 630.886719 29.164062 614.773438 32.703125 598.445312 L 43.800781 547.257812 C 47.34375 530.921875 63.445312 520.554688 79.777344 524.09375 L 663.667969 650.671875 C 679.988281 654.210938 690.363281 670.320312 686.820312 686.65625 L 675.722656 737.84375 "/>
</g>
</g>
</g>
<g clip-path="url(#clip4)" clip-rule="nonzero">
<g clip-path="url(#clip5)" clip-rule="nonzero">
<g clip-path="url(#clip6)" clip-rule="nonzero">
<path style=" stroke:none;fill-rule:nonzero;fill:rgb(0%,0%,0%);fill-opacity:1;" d="M 437.542969 283.753906 C 214.273438 232.765625 117.570312 532.289062 117.570312 532.289062 L 625.875 642.480469 C 625.875 642.480469 661.878906 329.796875 437.542969 283.753906 "/>
</g>
</g>
</g>
<g clip-path="url(#clip7)" clip-rule="nonzero">
<g clip-path="url(#clip8)" clip-rule="nonzero">
<g clip-path="url(#clip9)" clip-rule="nonzero">
<path style=" stroke:none;fill-rule:nonzero;fill:rgb(100%,56.858826%,30.198669%);fill-opacity:1;" d="M 403.070312 294.769531 C 403.070312 294.769531 447.507812 320.238281 482.507812 307.109375 C 482.507812 307.109375 526.90625 307.578125 539.3125 286.1875 C 551.726562 264.796875 538.898438 249.132812 553.128906 238.046875 C 567.359375 226.96875 565.589844 184.386719 534.074219 167.332031 C 502.558594 150.265625 403.925781 106.753906 352.777344 185.1875 C 352.777344 185.1875 301.675781 280.5625 403.070312 294.769531 "/>
</g>
</g>
</g>
</g>
</svg>
