<?xml version="1.0" encoding="UTF-8"?>
<svg xmlns="http://www.w3.org/2000/svg" xmlns:xlink="http://www.w3.org/1999/xlink" width="810pt" height="809.999993pt" viewBox="0 0 810 809.999993" version="1.2">
<g id="surface1">
<path style=" stroke:none;fill-rule:nonzero;fill:rgb(0%,0%,0%);fill-opacity:1;" d="M 417.957031 694.566406 C 407.015625 694.566406 397.960938 694.617188 388.910156 694.550781 C 380.261719 694.484375 371.613281 694.367188 362.96875 694.152344 C 346.125 693.734375 329.332031 692.585938 312.578125 690.847656 C 295.226562 689.046875 277.894531 687.144531 260.691406 684.1875 C 236.296875 679.996094 212.273438 674.292969 188.742188 666.613281 C 163.710938 658.441406 139.835938 647.765625 117.691406 633.425781 C 112.804688 630.257812 107.917969 627.050781 103.9375 622.703125 C 94.828125 612.753906 94.203125 601.015625 102.203125 590.195312 C 106.117188 584.890625 111.132812 580.828125 116.691406 577.398438 C 131.992188 567.964844 148.527344 561.378906 165.789062 556.640625 C 183.320312 551.832031 200.9375 547.34375 218.539062 542.792969 C 220.605469 542.253906 221.746094 541.09375 222.65625 539.253906 C 231.035156 522.292969 239.113281 505.167969 247.976562 488.464844 C 275.332031 436.898438 303.007812 385.503906 330.519531 334.019531 C 334.207031 327.121094 337.78125 320.152344 341.171875 313.101562 C 343.128906 309.035156 342.683594 304.867188 340.308594 301.003906 C 338.621094 298.265625 336.921875 295.53125 335.082031 292.902344 C 302.089844 245.71875 269.070312 198.554688 236.066406 151.378906 C 231.683594 145.113281 225.75 141.210938 218.3125 139.570312 C 207.027344 137.078125 195.523438 136.449219 184.042969 135.65625 C 178.476562 135.273438 172.90625 134.984375 167.332031 134.671875 C 166.128906 134.605469 165.257812 134.253906 164.816406 132.972656 C 163.929688 130.371094 164.027344 129.960938 166.46875 128.488281 C 177.484375 121.847656 188.457031 115.136719 199.535156 108.601562 C 206.234375 104.648438 212.976562 100.734375 219.917969 97.234375 C 226.570312 93.878906 233.855469 92.238281 241.25 91.703125 C 249.058594 91.136719 256.507812 93.09375 263.589844 96.378906 C 280.78125 104.351562 297.441406 113.347656 313.835938 122.824219 C 354.804688 146.507812 395.699219 170.324219 436.640625 194.058594 C 448.125 200.714844 459.460938 207.574219 469.9375 215.785156 C 485.949219 228.332031 497.453125 244.046875 504.078125 263.308594 C 511.78125 285.699219 519.476562 308.089844 527.277344 330.445312 C 539.320312 364.972656 551.648438 399.398438 563.476562 434 C 574.425781 466.03125 584.882812 498.234375 595.539062 530.371094 C 596.542969 533.398438 598.203125 535.96875 600.515625 538.148438 C 604.507812 541.910156 609.21875 544.429688 614.421875 546.03125 C 624.6875 549.195312 635.015625 552.167969 645.25 555.4375 C 656.050781 558.890625 666.890625 562.285156 677.5 566.277344 C 692.097656 571.765625 703.464844 581.976562 714.089844 592.984375 C 717.605469 596.628906 718.863281 601.578125 718.3125 606.542969 C 717.6875 612.152344 715.320312 617.222656 711.882812 621.773438 C 704.5 631.558594 695.367188 639.339844 684.648438 645.1875 C 659.558594 658.878906 632.945312 668.65625 605.296875 675.742188 C 584.476562 681.082031 563.332031 684.578125 542.019531 687.246094 C 520.808594 689.902344 499.523438 691.707031 478.171875 692.589844 C 457.480469 693.453125 436.773438 693.960938 417.957031 694.566406 Z M 417.957031 694.566406 "/>
<path style=" stroke:none;fill-rule:nonzero;fill:rgb(50.19989%,50.979614%,52.159119%);fill-opacity:1;" d="M 422.75 603.429688 C 450.042969 603.429688 477.394531 600.824219 504.492188 595.617188 C 576.988281 581.6875 625.851562 550.527344 627.734375 549.367188 L 610.359375 542.996094 C 610.359375 542.996094 610.355469 543 610.355469 543 C 609.636719 543.4375 570.257812 566.46875 500.726562 579.707031 C 459.875 587.484375 418.449219 589.132812 377.589844 584.605469 C 326.539062 578.949219 272.429688 562.320312 224.191406 537.65625 L 201.003906 545.90625 C 251.15625 571.546875 323.0625 595.054688 376.25 600.890625 C 391.691406 602.585938 407.210938 603.429688 422.75 603.429688 Z M 422.75 603.429688 "/>
</g>
</svg>
